<?xml version="1.0" encoding="utf-8"?>
<!-- Generator: Adobe Illustrator 25.3.1, SVG Export Plug-In . SVG Version: 6.00 Build 0)  -->
<svg version="1.1" id="Layer_1" xmlns="http://www.w3.org/2000/svg" xmlns:xlink="http://www.w3.org/1999/xlink" x="0px" y="0px"
	 viewBox="0 0 24 24" style="enable-background:new 0 0 24 24;" xml:space="preserve">
<style type="text/css">
	.st0{fill:#CEE9F9;}
	.st1{fill-rule:evenodd;clip-rule:evenodd;fill:#005897;}
	.st2{fill-rule:evenodd;clip-rule:evenodd;fill:#5D5E5E;}
	.st3{fill:#005897;}
	.st4{fill:#005897;stroke:#005897;stroke-width:0.25;stroke-miterlimit:10;}
	.st5{fill:#141515;}
	.st6{fill:none;stroke:#005897;stroke-width:0.5;stroke-miterlimit:10;}
	.st7{fill:none;stroke:#005897;stroke-width:0.5;stroke-miterlimit:10;stroke-dasharray:0.9113,0.9113;}
	.st8{fill:#005897;stroke:#CEE8F9;stroke-width:0.5;stroke-miterlimit:10;}
	.st9{fill:#005897;stroke:#CEE8F9;stroke-width:0.1;stroke-miterlimit:10;}
	.st10{fill:#005897;stroke:#005897;stroke-width:0.18;stroke-miterlimit:10;}
	.st11{fill:#CEE9F9;stroke:#005897;stroke-width:0.75;stroke-miterlimit:10;}
	.st12{fill:#005897;stroke:#005897;stroke-width:0.12;stroke-miterlimit:10;}
	.st13{fill-rule:evenodd;clip-rule:evenodd;fill:#005897;stroke:#CEE8F9;stroke-width:0.1;stroke-miterlimit:10;}
	.st14{fill:#005897;stroke:#005897;stroke-width:0.1;stroke-miterlimit:10;}
	.st15{fill:#A6A4A5;}
	.st16{fill:#292A29;}
	.st17{fill:#005897;stroke:#005897;stroke-width:0.2;stroke-miterlimit:10;}
	.st18{fill:#FEFDFD;}
	.st19{clip-path:url(#Ellipse_46_48_);}
	.st20{fill:#3D4650;}
	.st21{fill:#3F4A56;}
</style>
<g id="Group_629_38_" transform="translate(-990 -536.402)">
	<circle id="Ellipse_46_38_" class="st0" cx="1002" cy="548.4" r="11.8"/>
</g>
<g>
	<path class="st3" d="M11.64,12.93c-0.04-0.01-0.1-0.01-0.16-0.03c-0.76-0.17-1.38-0.65-2.11-0.9c-0.3-0.1-0.4-0.47-0.45-0.8
		c-0.17-1.08,0.7-2.19,1.77-2.19c0.31,0,0.41-0.2,0.56-0.37c1.43-1.61,2.86-3.21,4.28-4.84c0.3-0.34,0.52-0.37,0.86-0.06
		c1.22,1.13,1.16,0.74,0.13,1.97c-1.02,1.22-2.07,2.42-3.12,3.63c-0.42,0.49-0.47,1.05-0.34,1.66
		C13.29,12.11,12.7,12.91,11.64,12.93z M11.69,12.29c0.6,0,0.93-0.42,0.77-1.03c-0.27-0.98-0.05-1.78,0.65-2.54
		c1.12-1.21,2.16-2.48,3.26-3.7c0.2-0.22,0.14-0.33-0.05-0.48c-0.18-0.14-0.28-0.3-0.52-0.03c-1.58,1.8-3.18,3.58-4.78,5.37
		c-0.21,0.24-0.37,0.51-0.47,0.82C10.29,11.52,10.85,12.3,11.69,12.29z M9.95,11.63c-0.11-0.69,0-1.27,0.35-1.91
		C9.44,10.34,9.3,11.09,9.95,11.63z"/>
	<path class="st3" d="M6.75,21.89c0.16-0.85,0.1-1.68,0.1-2.51c-0.02-1.89-0.27-3.75-0.6-5.6c-0.12-0.66-0.45-1.28-0.49-1.98
		c-0.06-0.91,0.18-1.69,0.72-2.45c1.31-1.84,2.55-3.73,3.82-5.6c0.44-0.65,0.88-1.29,1.31-1.94c0.13-0.19,0.27-0.41,0.53-0.25
		c0.28,0.16,0.13,0.38,0,0.57c-1.67,2.48-3.28,5.01-5.02,7.44c-0.72,1-0.89,1.95-0.57,3.08c0.12,0.43,0.27,0.69,0.76,0.59
		c0.2-0.04,0.39,0.03,0.41,0.28c0.02,0.28-0.18,0.34-0.41,0.36c-0.02,0-0.03,0-0.05,0c-0.3-0.05-0.35,0.09-0.3,0.35
		c0.28,1.54,0.44,3.09,0.54,4.65c0.06,0.99,0.06,1.98-0.07,2.96c-0.03,0.24-0.13,0.41-0.38,0.39C6.86,22.22,6.75,22.07,6.75,21.89z"
		/>
	<path class="st3" d="M12.79,22.42c-0.28-0.01-0.37-0.27-0.18-0.58c0.46-0.75,0.78-1.56,0.99-2.41c0.31-1.29,0.3-2.59,0.04-3.89
		c-0.03-0.17-0.14-0.32-0.22-0.47c-0.47-0.91-0.36-1.92,0.36-2.65c2.02-2.05,4.05-4.08,6.08-6.11c0.16-0.16,0.34-0.29,0.53-0.11
		c0.24,0.23,0.06,0.42-0.12,0.6c-1.94,1.94-3.89,3.88-5.83,5.83c-0.78,0.78-0.87,1.33-0.36,2.3c0.24,0.45,0.27,0.95,0.32,1.43
		c0.2,2.04-0.18,3.96-1.22,5.74C13.08,22.24,13,22.41,12.79,22.42z"/>
	<path class="st3" d="M8.28,17.6c0-0.75-0.01-1.5,0-2.25c0.03-1.43,1.49-2.37,2.82-1.84c0.84,0.33,1.15,1.19,0.66,1.94
		c-0.36,0.56-0.52,1.13-0.51,1.8c0.01,0.91-0.05,1.82-0.05,2.72c0,0.42-0.17,0.56-0.58,0.55c-0.61-0.02-1.21-0.02-1.82,0
		c-0.39,0.01-0.55-0.13-0.54-0.53C8.29,19.19,8.27,18.39,8.28,17.6C8.28,17.6,8.28,17.6,8.28,17.6z M8.87,17.48
		C8.87,17.48,8.87,17.48,8.87,17.48c0,0.35-0.01,0.7,0,1.05c0.02,0.44-0.2,1.04,0.09,1.28c0.27,0.22,0.85,0.05,1.3,0.07
		c0.27,0.02,0.35-0.07,0.35-0.34c0-0.76,0.06-1.53,0.04-2.29c-0.02-0.77,0.11-1.47,0.57-2.12c0.3-0.43,0.13-0.83-0.35-1.03
		c-0.9-0.39-1.96,0.31-2,1.33C8.85,16.11,8.87,16.8,8.87,17.48z"/>
</g>
</svg>
