<svg width="75" height="75" viewBox="0 0 75 75" fill="none" xmlns="http://www.w3.org/2000/svg">
<path d="M9.57333 9.45858C16.5881 7.97685 21.5201 14.9897 21.9273 14.6567C26.4146 11.1988 31.9043 9.32548 37.5506 9.32548C43.1969 9.32548 48.6865 11.1988 53.1738 14.6567C53.5691 14.8558 58.4613 7.98972 65.4408 9.46085C74.0613 11.2816 75.5553 24.5877 64.7373 29.4491C62.8766 34.1258 56.2623 35.7612 53.6696 31.9396C50.8143 27.738 55.7808 21.5818 61.0788 22.5066C65.5526 20.7865 64.9841 17.3644 63.8538 17.1245C63.1466 16.9732 61.5963 17.5491 60.4271 18.6449C57.7796 21.1421 55.2123 23.2611 51.3108 24.0065C48.1128 28.4918 44.4656 35.3578 44.3148 40.5462C44.355 41.2614 44.5927 41.9511 45.0011 42.5372C46.8011 44.5047 45.7046 47.3615 42.2531 61.9926C42.1792 62.2802 41.9965 62.5271 41.7442 62.6804C41.492 62.8336 41.1902 62.8809 40.9038 62.8122C40.6173 62.7434 40.369 62.5641 40.2121 62.3127C40.0552 62.0613 40.0022 61.7578 40.0646 61.4674C43.0916 48.6351 44.1191 44.9225 43.3466 44.0764C39.2598 39.6116 46.0023 27.4467 49.7576 22.2917C50.5781 21.1664 52.6691 22.8554 58.8858 16.9838C60.5463 15.4324 62.7761 14.5743 64.3136 14.9027C64.926 15.0804 65.4801 15.4206 65.918 15.8878C66.3559 16.3549 66.6617 16.932 66.8036 17.5589C67.7426 22.2167 62.1476 25.0833 60.9086 24.7874C57.4931 23.9724 53.8001 28.1172 55.5258 30.6561C56.6133 32.2582 59.1258 32.0183 60.7931 30.865C62.9778 29.3514 62.4033 27.9704 63.4181 27.5511C66.9956 26.0671 68.6126 23.8143 69.3393 22.1842C72.8456 14.3283 64.4643 7.26626 56.6733 14.5765C55.7272 15.5212 54.7002 16.3797 53.6043 17.1419C53.4743 17.2273 53.3282 17.2845 53.1752 17.3101C53.0222 17.3358 52.8655 17.3292 52.7152 17.2908C52.5648 17.2524 52.4239 17.1831 52.3014 17.0871C52.1788 16.9912 52.0773 16.8707 52.0031 16.7333C51.9479 16.6254 51.8757 16.5273 51.7893 16.4427C47.6938 13.296 42.6874 11.5937 37.5397 11.5974C32.392 11.6011 27.3879 13.3106 23.2968 16.4631C23.2185 16.5529 23.1512 16.6521 23.0966 16.7583C23.0246 16.8982 22.9245 17.0214 22.8027 17.1202C22.6809 17.2189 22.5401 17.291 22.3892 17.3318C22.2382 17.3726 22.0806 17.3812 21.9261 17.3571C21.7717 17.333 21.624 17.2768 21.4923 17.1919C20.3632 16.42 19.3085 15.5425 18.3423 14.5712C10.5761 7.28442 2.17083 14.3321 5.67708 22.185C6.40458 23.8135 8.02233 26.0664 11.6021 27.5496C12.6438 27.981 11.9711 29.3045 14.2233 30.8634C15.9273 32.0417 18.4188 32.2324 19.4906 30.6538C21.2208 28.1073 17.5001 23.9762 14.1086 24.7852C13.8991 24.8346 13.6801 24.8228 13.4771 24.7511C8.71233 23.0643 7.35783 19.2268 8.32533 17.1518C8.5215 16.6167 8.83827 16.135 9.25062 15.7447C9.66297 15.3543 10.1596 15.0661 10.7013 14.9027C12.5576 14.5084 14.8091 15.7503 16.2768 17.1291C22.5168 23.0076 24.4616 21.0809 25.3571 22.3106C28.9571 27.2499 35.9126 39.5321 31.7568 44.0794C30.9318 44.9815 32.4858 50.6451 35.0396 61.469C35.1034 61.7599 35.0514 62.0644 34.8947 62.3169C34.738 62.5695 34.4891 62.7497 34.2019 62.8187C33.9146 62.8878 33.612 62.8401 33.3593 62.6859C33.1066 62.5318 32.924 62.2836 32.8511 61.9949C29.3898 47.3252 28.3053 44.5093 30.1023 42.541C30.5115 41.9541 30.7507 41.2639 30.7931 40.5477C30.6431 35.3654 27.0041 28.5099 23.8121 24.0269C19.7936 23.2898 17.2608 21.1512 14.5871 18.6411C13.4208 17.5476 11.8728 16.9709 11.1686 17.1276C10.0068 17.3705 9.47583 20.7956 13.9376 22.5096C19.2401 21.5826 24.1998 27.7449 21.3468 31.9426C18.7601 35.7506 12.1473 34.147 10.2791 29.4521C-0.454169 24.6247 0.83058 11.3058 9.57333 9.45858ZM38.6778 63.6219V59.1495C41.3823 47.301 42.1353 46.3482 40.9796 43.8403C39.4496 40.5212 39.4698 33.9041 48.2471 21.2345C48.5552 20.7885 48.7635 20.2801 48.8574 19.7448C48.9513 19.2094 48.9286 18.6598 48.7908 18.1342C48.6531 17.6086 48.4037 17.1195 48.0598 16.7009C47.7159 16.2823 47.2859 15.9442 46.7996 15.7101C40.2303 12.5598 34.8746 12.559 28.3083 15.7101C27.8222 15.9445 27.3925 16.2828 27.0489 16.7015C26.7054 17.1202 26.4562 17.6094 26.3189 18.135C26.1815 18.6607 26.1592 19.2102 26.2534 19.7454C26.3476 20.2806 26.5562 20.7887 26.8646 21.2345C33.8133 31.2486 36.3273 39.0622 34.1343 43.8297C33.641 44.8643 33.4853 46.03 33.6896 47.1594C33.7713 47.6544 33.8868 48.3854 33.8928 48.4096C36.9341 61.3002 36.4278 57.9932 36.4278 63.625C36.4282 63.926 36.5471 64.2146 36.7584 64.4272C36.9697 64.6398 37.256 64.759 37.5543 64.7586C37.8527 64.7582 38.1387 64.6382 38.3494 64.425C38.5601 64.2119 38.6782 63.923 38.6778 63.6219Z" fill="#21529A" style="fill:#21529A;fill:color(display-p3 0.1294 0.3216 0.6039);fill-opacity:1;"/>
</svg>
