<?xml version="1.0" encoding="UTF-8"?>
<svg version="1.1" xmlns="http://www.w3.org/2000/svg" width="240" height="298">
<path d="M0 0 C79.2 0 158.4 0 240 0 C240 98.34 240 196.68 240 298 C160.8 298 81.6 298 0 298 C0 199.66 0 101.32 0 0 Z " fill="#FDFCFC" transform="translate(0,0)"/>
<path d="M0 0 C1.18722656 -0.02126953 1.18722656 -0.02126953 2.3984375 -0.04296875 C4.625 0.1875 4.625 0.1875 7.625 2.1875 C7.96557617 4.25048828 7.96557617 4.25048828 7.91796875 6.7578125 C7.90830078 7.65371094 7.89863281 8.54960937 7.88867188 9.47265625 C7.86353516 10.40980469 7.83839844 11.34695313 7.8125 12.3125 C7.79219727 13.72982422 7.79219727 13.72982422 7.77148438 15.17578125 C7.73606306 17.51358779 7.68667271 19.85026237 7.625 22.1875 C8.285 22.1875 8.945 22.1875 9.625 22.1875 C9.88667969 21.4553125 10.14835937 20.723125 10.41796875 19.96875 C12.37758417 15.4533902 15.50505666 11.95459316 18.625 8.1875 C19.429375 7.176875 20.23375 6.16625 21.0625 5.125 C23.67796947 3.14744991 24.54628551 2.78852835 27.6875 2.5625 C31.625 3.1875 31.625 3.1875 34.125 5.375 C35.79066349 8.49811905 36.20231463 9.72361221 35.625 13.1875 C34.67507438 15.54166349 33.67547644 17.87645182 32.625 20.1875 C31.26756148 24.89073768 30.39691293 29.3745345 31.625 34.1875 C33.87605492 36.7912347 36.32375595 38.80931862 39.00390625 40.96484375 C43.77536307 45.01098225 47.54986687 49.95378447 48.5 56.25 C48.54125 57.219375 48.5825 58.18875 48.625 59.1875 C48.295 58.5275 47.965 57.8675 47.625 57.1875 C45.65733469 56.43070565 43.64524799 55.7900301 41.625 55.1875 C40.94566406 54.92582031 40.26632813 54.66414063 39.56640625 54.39453125 C29.68240226 50.84429036 18.74641957 50.54093403 8.9375 54.375 C2.11691991 57.68838059 -1.72848595 61.59242442 -4.66015625 68.5625 C-5.97260039 73.38196699 -5.67639353 78.23962286 -5.375 83.1875 C-4.715 83.1875 -4.055 83.1875 -3.375 83.1875 C-0.40996266 88.28365793 1.39520919 92.13585636 0.625 98.1875 C-0.73102019 101.98435653 -2.351593 105.15032418 -4.5 108.5625 C-6.88823414 112.56415949 -7.16712826 116.60392819 -7.375 121.1875 C-6.715 121.1875 -6.055 121.1875 -5.375 121.1875 C-4.83875 122.033125 -4.3025 122.87875 -3.75 123.75 C3.04247684 134.23404034 15.78286516 140.37113724 27.625 143.1875 C30.72969914 143.53388812 30.72969914 143.53388812 33.75 143.5 C35.23886719 143.52513672 35.23886719 143.52513672 36.7578125 143.55078125 C40.90003508 143.02594923 43.44679037 141.44333285 46.28515625 138.41796875 C53.2680112 128.24517449 55.10589152 116.22043821 56.625 104.1875 C66.9276833 107.89504001 73.42813238 116.78575256 78.18359375 126.30859375 C79.77973509 129.89472949 81.23540135 133.51796104 82.625 137.1875 C82.8710498 137.82059082 83.11709961 138.45368164 83.37060547 139.10595703 C94.64853022 168.56650867 97.82324314 200.62360749 98 231.9375 C98.01205475 233.12785355 98.01205475 233.12785355 98.02435303 234.34225464 C98.25069267 263.69515279 98.25069267 263.69515279 90.21875 272.65234375 C89.6928125 273.15894531 89.166875 273.66554688 88.625 274.1875 C87.696875 275.095 86.76875 276.0025 85.8125 276.9375 C75.08195461 284.51200263 64.06576747 285.55429395 51.25 285.5 C50.58304108 285.49850952 49.91608215 285.49701904 49.22891235 285.4954834 C38.40168281 285.45199599 28.17684851 284.57453092 17.625 282.1875 C16.18004124 281.8927915 14.73472024 281.59985411 13.2890625 281.30859375 C-23.26819517 273.6536512 -61.05531814 250.19291578 -83.375 220.1875 C-83.81054199 219.6104834 -84.24608398 219.0334668 -84.69482422 218.43896484 C-100.66120997 197.0964282 -107.68242362 174.89801344 -105.375 148.1875 C-102.667262 131.77077401 -91.91367254 118.27476754 -78.86328125 108.59375 C-72.03630415 103.74745082 -64.55302788 100.0461427 -56.375 98.1875 C-56.53355469 97.42566406 -56.69210938 96.66382812 -56.85546875 95.87890625 C-58.70522262 82.73591826 -58.87868625 68.44406444 -53.375 56.1875 C-53.024375 55.38699219 -52.67375 54.58648437 -52.3125 53.76171875 C-48.48807369 46.07302836 -42.39193375 39.12003847 -35.375 34.1875 C-36.75888185 29.89138327 -38.72308568 27.56365482 -42 24.5 C-43.49315063 23.09869933 -44.96089391 21.66852881 -46.375 20.1875 C-46.375 19.5275 -46.375 18.8675 -46.375 18.1875 C-46.99375 17.919375 -47.6125 17.65125 -48.25 17.375 C-50.375 16.1875 -50.375 16.1875 -52.375 13.1875 C-52.82390509 9.67107681 -52.8218255 7.87635598 -50.875 4.875 C-47.49388638 2.59274831 -44.39068912 1.87165928 -40.375 2.1875 C-31.01855622 5.46033013 -23.64354426 15.65041147 -19.375 24.1875 C-16.14030652 23.94789308 -15.21262319 23.02101888 -12.90234375 20.65234375 C-9.99174326 17.04541449 -8.82408632 13.29713379 -7.625 8.875 C-5.1055588 0.04130711 -5.1055588 0.04130711 0 0 Z " fill="#BE1931" transform="translate(120.375,-0.1875)"/>
<path d="M0 0 C0.79148438 -0.01417969 1.58296875 -0.02835937 2.3984375 -0.04296875 C4.625 0.1875 4.625 0.1875 7.625 2.1875 C7.96557617 4.25048828 7.96557617 4.25048828 7.91796875 6.7578125 C7.90830078 7.65371094 7.89863281 8.54960937 7.88867188 9.47265625 C7.86353516 10.40980469 7.83839844 11.34695313 7.8125 12.3125 C7.79219727 13.72982422 7.79219727 13.72982422 7.77148438 15.17578125 C7.73606306 17.51358779 7.68667271 19.85026237 7.625 22.1875 C8.285 22.1875 8.945 22.1875 9.625 22.1875 C9.88667969 21.4553125 10.14835937 20.723125 10.41796875 19.96875 C12.37758417 15.4533902 15.50505666 11.95459316 18.625 8.1875 C19.429375 7.176875 20.23375 6.16625 21.0625 5.125 C23.67796947 3.14744991 24.54628551 2.78852835 27.6875 2.5625 C31.625 3.1875 31.625 3.1875 34.125 5.375 C35.79066349 8.49811905 36.20231463 9.72361221 35.625 13.1875 C34.67507438 15.54166349 33.67547644 17.87645182 32.625 20.1875 C31.26756148 24.89073768 30.39691293 29.3745345 31.625 34.1875 C33.87605492 36.7912347 36.32375595 38.80931862 39.00390625 40.96484375 C43.77536307 45.01098225 47.54986687 49.95378447 48.5 56.25 C48.54125 57.219375 48.5825 58.18875 48.625 59.1875 C48.295 58.5275 47.965 57.8675 47.625 57.1875 C45.65733469 56.43070565 43.64524799 55.7900301 41.625 55.1875 C40.94566406 54.92582031 40.26632813 54.66414063 39.56640625 54.39453125 C29.68240226 50.84429036 18.74641957 50.54093403 8.9375 54.375 C2.11691991 57.68838059 -1.72848595 61.59242442 -4.66015625 68.5625 C-5.97260039 73.38196699 -5.67639353 78.23962286 -5.375 83.1875 C-4.715 83.1875 -4.055 83.1875 -3.375 83.1875 C-0.40996266 88.28365793 1.39520919 92.13585636 0.625 98.1875 C-0.72650708 101.97171984 -2.43661208 105.32357116 -4.5 108.75 C-6.30614936 112.06127383 -7.01220553 114.46885668 -7.375 118.1875 C-7.705 116.8675 -8.035 115.5475 -8.375 114.1875 C-8.83003906 114.620625 -9.28507812 115.05375 -9.75390625 115.5 C-16.1704931 120.45879341 -22.23184267 120.79276455 -30.0625 120.8125 C-31.55922241 120.82796875 -31.55922241 120.82796875 -33.08618164 120.84375 C-39.33507558 120.7269385 -43.45102552 120.15682637 -48.375 116.1875 C-50.16668294 113.61656609 -51.43856361 110.92966813 -52.6875 108.0625 C-54.94282567 102.74488355 -54.94282567 102.74488355 -58.375 98.1875 C-57.715 98.1875 -57.055 98.1875 -56.375 98.1875 C-56.53355469 97.42566406 -56.69210938 96.66382812 -56.85546875 95.87890625 C-58.70522262 82.73591826 -58.87868625 68.44406444 -53.375 56.1875 C-53.024375 55.38699219 -52.67375 54.58648437 -52.3125 53.76171875 C-48.48807369 46.07302836 -42.39193375 39.12003847 -35.375 34.1875 C-36.75888185 29.89138327 -38.72308568 27.56365482 -42 24.5 C-43.49315063 23.09869933 -44.96089391 21.66852881 -46.375 20.1875 C-46.375 19.5275 -46.375 18.8675 -46.375 18.1875 C-46.99375 17.919375 -47.6125 17.65125 -48.25 17.375 C-50.375 16.1875 -50.375 16.1875 -52.375 13.1875 C-52.82390509 9.67107681 -52.8218255 7.87635598 -50.875 4.875 C-47.49388638 2.59274831 -44.39068912 1.87165928 -40.375 2.1875 C-31.01855622 5.46033013 -23.64354426 15.65041147 -19.375 24.1875 C-16.14030652 23.94789308 -15.21262319 23.02101888 -12.90234375 20.65234375 C-9.99174326 17.04541449 -8.82408632 13.29713379 -7.625 8.875 C-5.1055588 0.04130711 -5.1055588 0.04130711 0 0 Z " fill="#EA576E" transform="translate(120.375,-0.1875)"/>
<path d="M0 0 C0.66 -0.33 1.32 -0.66 2 -1 C2.20625 -0.2575 2.4125 0.485 2.625 1.25 C4.4894785 4.978957 6.25377327 6.19626121 10 8 C14.73132376 7.9211446 18.62915184 6.84160873 23.125 5.4375 C30.1326125 3.28048605 30.1326125 3.28048605 34 4 C36.875 6.125 36.875 6.125 39 9 C39.1328125 12.1796875 39.1328125 12.1796875 39 15 C37.26363281 15.48919922 37.26363281 15.48919922 35.4921875 15.98828125 C33.95303666 16.42937936 32.41397905 16.87080289 30.875 17.3125 C29.73417969 17.63250977 29.73417969 17.63250977 28.5703125 17.95898438 C24.1105409 19.24693566 20.0997028 20.76677531 16 23 C17.52367187 22.94779297 17.52367187 22.94779297 19.078125 22.89453125 C39.89792875 22.40220532 39.89792875 22.40220532 48 28 C48.609375 30.1640625 48.609375 30.1640625 48.75 32.625 C48.80671875 33.44226563 48.8634375 34.25953125 48.921875 35.1015625 C48.94765625 35.72804687 48.9734375 36.35453125 49 37 C42.98384491 42.03392569 42.98384491 42.03392569 38.375 41.875 C37.26125 41.58625 36.1475 41.2975 35 41 C31.28539698 40.13657221 27.81328898 39.83681945 24 39.8125 C22.989375 39.79832031 21.97875 39.78414062 20.9375 39.76953125 C17.87448243 40.00984779 15.73173569 40.61229768 13 42 C11.79117904 44.00016466 11.79117904 44.00016466 11 46 C10.01 46.495 10.01 46.495 9 47 C8.67952571 49.5753263 8.67952571 49.5753263 8.625 52.6875 C7.82411336 65.05373265 4.62733337 77.52294542 -5 86 C-15.12040925 89.37346975 -25.40609065 86.22826812 -34.625 81.71484375 C-40.86392924 78.21519438 -50.37453415 72.75387501 -52.77734375 65.7265625 C-52.85082031 65.15679687 -52.92429687 64.58703125 -53 64 C-53.66 64 -54.32 64 -55 64 C-55.69261914 56.84293552 -54.4491941 53.19137006 -50.41015625 47.26171875 C-47.74661117 42.98971709 -47.65647776 38.98107248 -48 34 C-49.41623241 30.74941676 -49.41623241 30.74941676 -51 28 C-51 27.34 -51 26.68 -51 26 C-51.66 26 -52.32 26 -53 26 C-55.29853972 19.10438085 -54.37073574 14.10195343 -51.3125 7.6875 C-47.67648279 0.50002412 -42.75632111 -2.68795711 -35.296875 -5.23828125 C-22.69740933 -8.14929524 -11.35304644 -5.67652322 0 0 Z " fill="#F5AABB" transform="translate(168,57)"/>
<path d="M0 0 C0.99 0 1.98 0 3 0 C3.31319144 1.39567835 3.62551788 2.79155082 3.9375 4.1875 C4.12441406 5.00734375 4.31132813 5.8271875 4.50390625 6.671875 C5 9 5 9 5.375 11.9375 C5.79768904 14.16397291 5.79768904 14.16397291 7.875 15.125 C8.57625 15.41375 9.2775 15.7025 10 16 C10.474375 16.495 10.94875 16.99 11.4375 17.5 C13.4156595 19.39903312 15.43558782 20.09899031 18 21 C18 21.66 18 22.32 18 23 C18.70125 23.226875 19.4025 23.45375 20.125 23.6875 C23.67244292 25.30698481 26.75096476 26.76109812 29 30 C29.47351346 32.73247673 29.56717012 35.37834174 29.66796875 38.1484375 C30.20690001 42.776906 32.47967606 46.16941591 35 50 C38 54.86206897 38 54.86206897 38 57 C38.99 57.33 39.98 57.66 41 58 C41.144375 58.639375 41.28875 59.27875 41.4375 59.9375 C41.80104993 62.20311706 41.80104993 62.20311706 44.0625 63.25 C44.701875 63.4975 45.34125 63.745 46 64 C46 64.66 46 65.32 46 66 C46.66 66 47.32 66 48 66 C48 66.66 48 67.32 48 68 C48.66 68 49.32 68 50 68 C50.37125 68.928125 50.37125 68.928125 50.75 69.875 C52.20628639 72.35068687 53.37812506 72.95125002 56 74 C56 74.66 56 75.32 56 76 C56.66 76 57.32 76 58 76 C58.99 77.485 58.99 77.485 60 79 C61.96752828 80.06246527 63.96587579 81.07137808 66 82 C66 82.66 66 83.32 66 84 C66.86625 84.185625 66.86625 84.185625 67.75 84.375 C70.02335767 85.00648824 71.9253529 85.88858191 74 87 C74 87.66 74 88.32 74 89 C74.66386719 89.26039063 75.32773438 89.52078125 76.01171875 89.7890625 C79.63868885 91.25881509 83.22632825 92.80879951 86.8125 94.375 C87.52591553 94.68518066 88.23933105 94.99536133 88.97436523 95.31494141 C92.57264711 96.89086131 96.0973426 98.51964013 99.5625 100.375 C103.14669062 102.06934466 106.08889335 102.54871846 110 103 C112.4375 104.0625 112.4375 104.0625 114 105 C114 105.66 114 106.32 114 107 C114.66 107 115.32 107 116 107 C116.33 109.64 116.66 112.28 117 115 C119.31 115 121.62 115 124 115 C124.33 113.68 124.66 112.36 125 111 C128.60848947 109.81485885 131.74183881 110.05607348 135.5 110.375 C136.6240625 110.46523438 137.748125 110.55546875 138.90625 110.6484375 C142 111 142 111 143.90917969 111.51586914 C146.19248144 112.04456921 148.20503873 112.11347947 150.546875 112.09765625 C151.39121094 112.09443359 152.23554688 112.09121094 153.10546875 112.08789062 C153.97816406 112.07951172 154.85085937 112.07113281 155.75 112.0625 C156.63816406 112.05798828 157.52632812 112.05347656 158.44140625 112.04882812 C160.62767329 112.037074 162.81380179 112.02064249 165 112 C163.7900073 115.62997809 162.33448639 116.33275681 159 118 C158.34 117.67 157.68 117.34 157 117 C157 118.98 157 120.96 157 123 C155.67083439 123.63381508 154.33635391 124.25648484 153 124.875 C152.2575 125.22304688 151.515 125.57109375 150.75 125.9296875 C142.34721217 129.20009072 134.57688097 129.35042461 125.625 129.3125 C124.95804108 129.31100952 124.29108215 129.30951904 123.60391235 129.3079834 C112.77668281 129.26449599 102.55184851 128.38703092 92 126 C90.55504124 125.7052915 89.10972024 125.41235411 87.6640625 125.12109375 C47.37620298 116.6849782 9.41701392 90.34816373 -14.0625 56.9375 C-14.45727539 56.37683838 -14.85205078 55.81617676 -15.25878906 55.23852539 C-18 51.24533089 -18 51.24533089 -18 49 C-15.525 48.505 -15.525 48.505 -13 48 C-12.67 44.04 -12.34 40.08 -12 36 C-6.33822218 37.4517379 -1.50540116 40.31558305 3 44 C3 44.66 3 45.32 3 46 C3.598125 46.20625 4.19625 46.4125 4.8125 46.625 C7.97060586 48.61009511 8.61863031 50.53122722 10 54 C10.4817943 57.28807819 10.60001657 60.5556287 10.6875 63.875 C10.73874023 65.19371094 10.73874023 65.19371094 10.79101562 66.5390625 C10.8729314 68.69227705 10.93815579 70.84611551 11 73 C12.485 73.495 12.485 73.495 14 74 C14.515625 74.804375 15.03125 75.60875 15.5625 76.4375 C19.11969042 80.17711044 23.02086055 80.36335431 28 81 C28.37089934 78.63181037 28.37089934 78.63181037 28 76 C26.07726254 74.2003949 26.07726254 74.2003949 23.5625 72.875 C19.09631545 70.28894635 19.09631545 70.28894635 18 67 C18.00563174 64.91625765 18.05235523 62.83248328 18.125 60.75 C18.186596 55.21867892 17.53100605 51.85109493 15 47 C15 46.01 15 45.02 15 44 C14.34 44 13.68 44 13 44 C10 40.53846154 10 40.53846154 10 38 C8.515 37.505 8.515 37.505 7 37 C6.29810547 36.28070313 6.29810547 36.28070313 5.58203125 35.546875 C3.72072904 33.72693506 2.12085916 33.14097089 -0.3125 32.25 C-5.12925504 30.16431359 -8.52899532 27.71906157 -11 23 C-12.23874788 18.00910274 -11.40424771 14.13285998 -8.8125 9.75 C-6.50944752 6.46273705 -3.95443957 3.70823627 -1 1 C-0.67 0.67 -0.34 0.34 0 0 Z " fill="#A1051E" transform="translate(46,156)"/>
<path d="M0 0 C1.53546919 2.34923816 2.67758129 4.40961263 3.8125 6.9375 C4.27946289 7.90719727 4.27946289 7.90719727 4.75585938 8.89648438 C7 13.64617102 7 13.64617102 7 16 C7.99 16.33 8.98 16.66 10 17 C9.85711146 18.70858216 9.71053911 20.4168564 9.5625 22.125 C9.47871094 23.13175781 9.39492187 24.13851562 9.30859375 25.17578125 C9 28 9 28 8.125 31.3125 C7.73544414 34.25344287 7.73544414 34.25344287 10 37.25 C12.873562 40.34150069 15.89465573 41.13156179 20 42 C21 43 21 43 21.0625 45.5625 C21.041875 46.366875 21.02125 47.17125 21 48 C17.51293157 49.74353421 13.80384824 49.59240259 10 49 C7.96705583 47.83323243 6.33564591 46.57247738 4.60546875 44.99609375 C3.01451056 43.78202231 3.01451056 43.78202231 0.90234375 44.21875 C-1.60276614 45.24754256 -2.4578104 46.82691465 -4 49 C-4.66 49 -5.32 49 -6 49 C-7.745067 54.23520099 -7.83289531 58.99111318 -5.375 63.9375 C-3.29071585 67.12590957 -3.29071585 67.12590957 -0.3125 68.1875 C5.4840386 67.85939404 10.23225997 65.17849335 15 62 C17.15625 61.734375 17.15625 61.734375 19.5 61.75 C20.2734375 61.74484375 21.046875 61.7396875 21.84375 61.734375 C24 62 24 62 27 64 C27.375 66.5 27.375 66.5 27 69 C24.18972612 70.87351592 22.76131342 71.4205796 19.5625 72.0625 C16.68939616 72.65073277 13.84051225 73.26884309 11 74 C11.49371094 74.6290625 11.98742187 75.258125 12.49609375 75.90625 C16.57437857 81.35490417 19.22634996 85.09632637 19 92 C18.2205811 94.54158337 17.23731757 96.62435027 16 99 C11.125 98.125 11.125 98.125 10 97 C9.97348927 95.27091106 9.95383536 93.54171501 9.9375 91.8125 C9.67812621 88.37356129 9.51852386 86.59276186 7.2265625 83.97265625 C4.59207257 82.02769888 1.92394075 80.46197038 -1 79 C-1 78.34 -1 77.68 -1 77 C-1.680625 76.95875 -2.36125 76.9175 -3.0625 76.875 C-8.65834079 75.20815381 -12.11428712 71.57142608 -14.9375 66.5625 C-16.04543542 62.84765772 -16.23596374 59.8540745 -16 56 C-18.95800528 56.70768358 -18.95800528 56.70768358 -22 58 C-23.07822863 59.86957087 -23.07822863 59.86957087 -24 62 C-24.87072072 63.23220174 -25.74584102 64.46130459 -26.625 65.6875 C-28.96222841 69.44101905 -29.83270449 72.40304856 -29.53515625 76.828125 C-28.52450404 80.92975004 -26.34653065 83.49507211 -23 86 C-20.52854607 87.07948562 -18.02808448 87.94942308 -15.48046875 88.83203125 C-11.29438132 90.80311809 -8.50585597 94.16653821 -6 98 C-6 98.66 -6 99.32 -6 100 C-5.34 100 -4.68 100 -4 100 C0.63162582 108.60159081 0.42324766 116.52395508 0 126 C0.60457031 126.30164063 1.20914063 126.60328125 1.83203125 126.9140625 C8.73306524 130.37079664 8.73306524 130.37079664 9.875 133.0625 C10 135 10 135 9 137 C2.04767989 137.59933794 2.04767989 137.59933794 -0.76171875 135.9921875 C-2.2468457 134.7427356 -3.62764215 133.37235785 -5 132 C-5.598125 131.46375 -6.19625 130.9275 -6.8125 130.375 C-9.35950243 127.42583929 -9.12527078 124.11069722 -9.23828125 120.40209961 C-9.48707461 110.98310595 -9.48707461 110.98310595 -14 103 C-19.16540084 98.26165986 -24.63993482 94.89093872 -31 92 C-31 95.96 -31 99.92 -31 104 C-34.465 104.99 -34.465 104.99 -38 106 C-48.01256779 85.85869477 -54.63382592 63.57247938 -48.5 41 C-41.74023765 22.50086389 -27.98765391 9.3520668 -10.4609375 1.05859375 C-6.49592254 -0.64699205 -4.11524342 -1.60702461 0 0 Z " fill="#D7445F" transform="translate(65,100)"/>
<path d="M0 0 C10.3619803 3.72887872 16.9649889 12.72618809 21.62890625 22.3671875 C23.16460829 25.88506135 24.603599 29.42473192 26 33 C26.42796875 34.05574219 26.8559375 35.11148438 27.296875 36.19921875 C30.43742123 44.25493495 30.43742123 44.25493495 29 48 C28.34 48.99 27.68 49.98 27 51 C25.02 50.67 23.04 50.34 21 50 C20.505 48.02 20.505 48.02 20 46 C19.34 46 18.68 46 18 46 C18 44.68 18 43.36 18 42 C17.34 42 16.68 42 16 42 C15.443125 41.319375 14.88625 40.63875 14.3125 39.9375 C12.09280927 37.69708852 12.09280927 37.69708852 8.8125 37.75 C5.18235173 38.4698375 3.2551859 40.41747895 0.625 42.9375 C-5.0106723 48.28612617 -10.00380659 49.04515465 -17.5625 49.125 C-18.696875 49.08375 -19.83125 49.0425 -21 49 C-20.34908323 58.04235055 -20.34908323 58.04235055 -19 67 C-18.34 67 -17.68 67 -17 67 C-14.20154273 72.34250933 -12 76.90420047 -12 83 C-11.34 83 -10.68 83 -10 83 C-9.74605469 83.54269531 -9.49210937 84.08539063 -9.23046875 84.64453125 C-8.71419922 85.71767578 -8.71419922 85.71767578 -8.1875 86.8125 C-7.85105469 87.52019531 -7.51460937 88.22789062 -7.16796875 88.95703125 C-6.08586675 91.05757461 -6.08586675 91.05757461 -4.36328125 92.63671875 C-3 94 -3 94 -3 96 C-2.34 96 -1.68 96 -1 96 C-1 96.66 -1 97.32 -1 98 C-0.43152344 98.14695312 0.13695312 98.29390625 0.72265625 98.4453125 C8.02730461 100.567197 13.19178235 103.91423319 17.4375 110.3125 C19.48182258 114.2601574 19.98185691 118.65683114 19 123 C16 125 16 125 13.8125 124.625 C12.9153125 124.315625 12.9153125 124.315625 12 124 C10 117.375 10 117.375 10 114 C9.34 114 8.68 114 8 114 C7.46375 113.4225 6.9275 112.845 6.375 112.25 C3.72730293 109.7416554 1.18090536 108.45255105 -2.09765625 106.9296875 C-4 106 -4 106 -7 104 C-7 103.34 -7 102.68 -7 102 C-7.99 101.67 -8.98 101.34 -10 101 C-10 100.34 -10 99.68 -10 99 C-10.99 99 -11.98 99 -13 99 C-13.20496094 99.62648438 -13.40992188 100.25296875 -13.62109375 100.8984375 C-13.89050781 101.71570313 -14.15992188 102.53296875 -14.4375 103.375 C-14.70433594 104.18710938 -14.97117188 104.99921875 -15.24609375 105.8359375 C-16 108 -16 108 -17 110 C-17.66 110 -18.32 110 -19 110 C-18.74156449 116.53841843 -18.08952928 120.67121942 -14 126 C-13.28426473 127.64619113 -12.5974304 129.30728055 -12 131 C-7.49161525 131.16213913 -7.49161525 131.16213913 -3.0625 130.5 C2.22289858 129.21869125 7.18577969 129.52783281 12 132 C12.86625 132.391875 13.7325 132.78375 14.625 133.1875 C17.81264096 135.62017337 19.08635387 138.18959987 20 142 C20.96021208 150.54983356 20.96021208 150.54983356 18.4765625 154.30078125 C17.98929687 154.86152344 17.50203125 155.42226563 17 156 C15.02 155.67 13.04 155.34 11 155 C11.02320313 154.08476562 11.04640625 153.16953125 11.0703125 152.2265625 C11.08835937 151.03804687 11.10640625 149.84953125 11.125 148.625 C11.14820313 147.44164062 11.17140625 146.25828125 11.1953125 145.0390625 C11.32866229 141.88846183 11.32866229 141.88846183 9 140 C5.64255888 139.75622117 5.64255888 139.75622117 1.875 139.875 C0.59367187 139.89304688 -0.68765625 139.91109375 -2.0078125 139.9296875 C-2.99523437 139.95289063 -3.98265625 139.97609375 -5 140 C-4.505 141.134375 -4.01 142.26875 -3.5 143.4375 C-0.98444249 150.17347152 -1.26960478 156.34466166 -4 163 C-4.66 163 -5.32 163 -6 163 C-6.33 164.32 -6.66 165.64 -7 167 C-9.31 167 -11.62 167 -14 167 C-14.25055928 160.48545861 -14.25055928 160.48545861 -13 158.0625 C-10.83055116 153.58801177 -11.67879256 149.0580951 -13.0625 144.5 C-14.83585642 140.76661805 -17.58108988 138.00227117 -20.3515625 134.98046875 C-23.80495624 130.83148622 -25.01688651 126.2462511 -26 121 C-27.41875765 121.76697796 -28.83491452 122.53876778 -30.25 123.3125 C-31.43335938 123.95638672 -31.43335938 123.95638672 -32.640625 124.61328125 C-35.026896 125.94792359 -35.026896 125.94792359 -37.12890625 127.65234375 C-39.54696247 129.39395001 -41.0852839 129.31510444 -44 129 C-45 128 -45 128 -45.0625 124.4375 C-45.041875 123.303125 -45.02125 122.16875 -45 121 C-38.5380117 117.19883041 -38.5380117 117.19883041 -35.125 115.9375 C-34.073125 115.4734375 -34.073125 115.4734375 -33 115 C-32.505 113.515 -32.505 113.515 -32 112 C-31.34 112 -30.68 112 -30 112 C-29.773125 111.484375 -29.54625 110.96875 -29.3125 110.4375 C-28.18142488 108.33693192 -26.99780055 106.63923597 -25.5625 104.75 C-21.50196981 99.10370063 -19.35338247 93.36563335 -19.5703125 86.3515625 C-20.23927857 82.69049364 -21.96535327 79.74038134 -23.75390625 76.5078125 C-25.61473902 72.76281363 -26.27199298 69.10331229 -27 65 C-27.99 65 -28.98 65 -30 65 C-30.33 65.99 -30.66 66.98 -31 68 C-36.18075943 71.83270468 -41.72333528 72.60770845 -48 73 C-47.67 78.61 -47.34 84.22 -47 90 C-49.31 90 -51.62 90 -54 90 C-57.10876343 84.94825943 -57.86953506 80.78387363 -57 75 C-55.64391535 70.58697876 -54.09646562 67.7475902 -50.25 65.125 C-47.148605 64.05144019 -44.08990589 63.26712857 -40.8984375 62.52734375 C-38.23709973 61.78808326 -36.19459438 60.6625715 -34 59 C-33.67 58.01 -33.34 57.02 -33 56 C-32.34 56 -31.68 56 -31 56 C-31 50.39 -31 44.78 -31 39 C-25.77539062 39.14648438 -25.77539062 39.14648438 -20.55078125 39.29296875 C-15.93274375 38.91194255 -13.48478638 37.58260761 -10.33984375 34.23046875 C-3.3569888 24.05767449 -1.51910848 12.03293821 0 0 Z " fill="#D84561" transform="translate(177,104)"/>
<path d="M0 0 C0.79148438 -0.01417969 1.58296875 -0.02835937 2.3984375 -0.04296875 C4.625 0.1875 4.625 0.1875 7.625 2.1875 C7.96557617 4.25048828 7.96557617 4.25048828 7.91796875 6.7578125 C7.9034668 8.10166016 7.9034668 8.10166016 7.88867188 9.47265625 C7.86353516 10.40980469 7.83839844 11.34695313 7.8125 12.3125 C7.79219727 13.72982422 7.79219727 13.72982422 7.77148438 15.17578125 C7.73606306 17.51358779 7.68667271 19.85026237 7.625 22.1875 C9.275 22.1875 10.925 22.1875 12.625 22.1875 C12.99625 21.135625 12.99625 21.135625 13.375 20.0625 C16.21344672 13.53407255 20.27033577 8.52458624 26.625 5.1875 C29.31640625 4.9609375 29.31640625 4.9609375 31.625 5.1875 C32.625 6.1875 32.625 6.1875 32.953125 8.46875 C32.50986395 12.14148442 31.07232477 13.21640247 28.375 15.6875 C25.81213641 18.09068361 23.59280938 20.23105201 21.5 23.0625 C18.89284402 26.01727678 16.3054976 26.8427028 12.625 28.1875 C13.29144531 28.3834375 13.95789063 28.579375 14.64453125 28.78125 C22.40504767 31.29934764 28.26884113 35.1222438 34.625 40.1875 C34.295 42.4975 33.965 44.8075 33.625 47.1875 C29.13876598 47.52550393 29.13876598 47.52550393 26.84375 46.015625 C26.2765625 45.49484375 25.709375 44.9740625 25.125 44.4375 C15.77046227 37.09992579 3.46901467 35.74762132 -8.08203125 36.80908203 C-19.20470808 38.64470268 -29.36679734 44.85168966 -35.95703125 53.8984375 C-37.92670697 57.07813439 -39.24209511 60.38283215 -40.515625 63.890625 C-41.375 66.1875 -41.375 66.1875 -42.4140625 68.15625 C-43.55229811 70.5622765 -44.01841917 72.82320405 -44.5 75.4375 C-44.66757813 76.32953125 -44.83515625 77.2215625 -45.0078125 78.140625 C-45.12898438 78.81609375 -45.25015625 79.4915625 -45.375 80.1875 C-50.125 81.3125 -50.125 81.3125 -52.375 80.1875 C-53.00367565 71.47335694 -51.29191481 64.37830097 -48.375 56.1875 C-49.695 56.1875 -51.015 56.1875 -52.375 56.1875 C-50.19014573 46.71979818 -42.65925268 40.07166255 -35.375 34.1875 C-36.75888185 29.89138327 -38.72308568 27.56365482 -42 24.5 C-43.49315063 23.09869933 -44.96089391 21.66852881 -46.375 20.1875 C-46.375 19.5275 -46.375 18.8675 -46.375 18.1875 C-46.99375 17.919375 -47.6125 17.65125 -48.25 17.375 C-50.375 16.1875 -50.375 16.1875 -52.375 13.1875 C-52.82390509 9.67107681 -52.8218255 7.87635598 -50.875 4.875 C-47.49388638 2.59274831 -44.39068912 1.87165928 -40.375 2.1875 C-31.01855622 5.46033013 -23.64354426 15.65041147 -19.375 24.1875 C-16.14030652 23.94789308 -15.21262319 23.02101888 -12.90234375 20.65234375 C-9.99174326 17.04541449 -8.82408632 13.29713379 -7.625 8.875 C-5.1055588 0.04130711 -5.1055588 0.04130711 0 0 Z " fill="#E45D71" transform="translate(120.375,-0.1875)"/>
<path d="M0 0 C1.84807338 2.46126258 3.08888671 5.1509212 4.375 7.9375 C4.74238281 8.67935547 5.10976562 9.42121094 5.48828125 10.18554688 C6.40267223 12.08851527 7.21013844 14.04206274 8 16 C7.67 16.66 7.34 17.32 7 18 C5.35 18 3.7 18 2 18 C1.70867187 19.07378906 1.41734375 20.14757812 1.1171875 21.25390625 C-2.31348895 33.40101042 -5.57395591 39.16899916 -16.5625 45.625 C-17.21202637 45.98585693 -17.86155273 46.34671387 -18.53076172 46.71850586 C-22.65507374 49.02940647 -25.78128575 51.4650612 -29 55 C-29.82177734 55.88171875 -29.82177734 55.88171875 -30.66015625 56.78125 C-41.16309152 69.65392832 -39.47577948 85.3450253 -39 101 C-48.94038057 91.51425169 -49.99914342 74.01457709 -50.4050293 60.97827148 C-50.61731145 43.14178193 -44.92877759 29.331119 -33 16 C-10.12302744 -4.14401879 -10.12302744 -4.14401879 0 0 Z " fill="#A00720" transform="translate(65,100)"/>
<path d="M0 0 C0 0.66 0 1.32 0 2 C0.99 2.33 1.98 2.66 3 3 C4.3515625 5.9140625 4.3515625 5.9140625 5.625 9.625 C6.05039062 10.83414063 6.47578125 12.04328125 6.9140625 13.2890625 C8.75955228 19.59559233 9.11416765 25.49244387 9 32 C9.66 32.33 10.32 32.66 11 33 C10.67841919 33.81960205 10.67841919 33.81960205 10.3503418 34.65576172 C7.60917894 42.49700372 7.65316563 49.88863886 7.8125 58.125 C7.82758568 59.47654746 7.84126717 60.82811135 7.85351562 62.1796875 C7.88859276 65.45355371 7.93774903 68.7265568 8 72 C6.9378125 72.43570313 5.875625 72.87140625 4.78125 73.3203125 C-5.50759291 77.59416483 -5.50759291 77.59416483 -14.6171875 83.93359375 C-16 85 -16 85 -18 85 C-18.01458252 83.98615234 -18.02916504 82.97230469 -18.04418945 81.92773438 C-18.34227235 62.56642398 -18.89895479 43.35814834 -21.0715332 24.10546875 C-22.80423183 8.29707426 -22.80423183 8.29707426 -19.35546875 3.90625 C-12.88826167 -0.28869513 -7.60645104 -0.69500568 0 0 Z " fill="#F3ADBD" transform="translate(56,26)"/>
<path d="M0 0 C1.96685613 0.7403755 3.88536723 1.54308825 5.8046875 2.3984375 C6.7946875 2.7903125 7.7846875 3.1821875 8.8046875 3.5859375 C9.4646875 3.8540625 10.1246875 4.1221875 10.8046875 4.3984375 C11.1346875 3.0784375 11.4646875 1.7584375 11.8046875 0.3984375 C12.0109375 1.1409375 12.2171875 1.8834375 12.4296875 2.6484375 C14.294166 6.3773945 16.05846077 7.59469871 19.8046875 9.3984375 C24.53601126 9.3195821 28.43383934 8.24004623 32.9296875 6.8359375 C39.9373 4.67892355 39.9373 4.67892355 43.8046875 5.3984375 C46.6796875 7.5234375 46.6796875 7.5234375 48.8046875 10.3984375 C48.9375 13.578125 48.9375 13.578125 48.8046875 16.3984375 C47.06832031 16.88763672 47.06832031 16.88763672 45.296875 17.38671875 C43.75772416 17.82781686 42.21866655 18.26924039 40.6796875 18.7109375 C39.91914063 18.92427734 39.15859375 19.13761719 38.375 19.35742188 C33.9152284 20.64537316 29.9043903 22.16521281 25.8046875 24.3984375 C27.32835937 24.34623047 27.32835937 24.34623047 28.8828125 24.29296875 C49.70261625 23.80064282 49.70261625 23.80064282 57.8046875 29.3984375 C58.4140625 31.5625 58.4140625 31.5625 58.5546875 34.0234375 C58.61140625 34.84070313 58.668125 35.65796875 58.7265625 36.5 C58.75234375 37.12648437 58.778125 37.75296875 58.8046875 38.3984375 C52.78853241 43.43236319 52.78853241 43.43236319 48.1796875 43.2734375 C47.0659375 42.9846875 45.9521875 42.6959375 44.8046875 42.3984375 C41.09008448 41.53500971 37.61797648 41.23525695 33.8046875 41.2109375 C32.7940625 41.19675781 31.7834375 41.18257812 30.7421875 41.16796875 C27.67916993 41.40828529 25.53642319 42.01073518 22.8046875 43.3984375 C21.59586654 45.39860216 21.59586654 45.39860216 20.8046875 47.3984375 C19.8146875 47.8934375 19.8146875 47.8934375 18.8046875 48.3984375 C17.3196875 47.9034375 17.3196875 47.9034375 15.8046875 47.3984375 C15.8046875 49.0484375 15.8046875 50.6984375 15.8046875 52.3984375 C15.1446875 52.3984375 14.4846875 52.3984375 13.8046875 52.3984375 C13.4746875 53.3884375 13.1446875 54.3784375 12.8046875 55.3984375 C6.9296875 54.5234375 6.9296875 54.5234375 5.8046875 53.3984375 C5.89958235 51.56176294 6.05873932 49.72838975 6.2421875 47.8984375 C8.40764443 31.67613617 8.40764443 31.67613617 3.42578125 16.96875 C-0.55521602 13.11245866 -4.54032754 10.12061276 -9.6328125 7.8984375 C-12.1953125 6.3984375 -12.1953125 6.3984375 -13.0703125 3.2109375 C-13.1115625 2.2828125 -13.1528125 1.3546875 -13.1953125 0.3984375 C-9.21785295 -1.59029228 -4.213683 -1.15463911 0 0 Z " fill="#EFB2C0" transform="translate(158.1953125,55.6015625)"/>
<path d="M0 0 C1.33277587 1.00074286 2.66595551 2.00094891 4 3 C3.67 5.31 3.34 7.62 3 10 C-1.48623402 10.33800393 -1.48623402 10.33800393 -3.78125 8.828125 C-4.3484375 8.30734375 -4.915625 7.7865625 -5.5 7.25 C-14.85453773 -0.08757421 -27.15598533 -1.43987868 -38.70703125 -0.37841797 C-49.82970808 1.45720268 -59.99179734 7.66418966 -66.58203125 16.7109375 C-68.55170697 19.89063439 -69.86709511 23.19533215 -71.140625 26.703125 C-72 29 -72 29 -73.0390625 30.96875 C-74.17729811 33.3747765 -74.64341917 35.63570405 -75.125 38.25 C-75.29257813 39.14203125 -75.46015625 40.0340625 -75.6328125 40.953125 C-75.75398438 41.62859375 -75.87515625 42.3040625 -76 43 C-80.75 44.125 -80.75 44.125 -83 43 C-83.5372231 32.53409818 -81.76663171 22.93177543 -76 14 C-73.9375 12.3125 -73.9375 12.3125 -72 11 C-71.5565625 10.24074219 -71.113125 9.48148438 -70.65625 8.69921875 C-64.69679116 -1.01301253 -54.90655961 -5.86612738 -44.25 -8.7421875 C-28.45152682 -12.09477047 -12.90269049 -10.12240363 0 0 Z " fill="#F8A4B6" transform="translate(151,37)"/>
<path d="M0 0 C10.39542739 3.74091505 16.98499437 12.77181935 21.6640625 22.4375 C23.19263819 25.9313873 24.62605962 29.44269817 26 33 C26.35449219 33.90878906 26.70898438 34.81757813 27.07421875 35.75390625 C28.50276808 39.67756889 29.31420156 41.92144343 28 46 C27.34 43.69 26.68 41.38 26 39 C25.34 39 24.68 39 24 39 C23.8453125 38.0409375 23.8453125 38.0409375 23.6875 37.0625 C23.460625 36.381875 23.23375 35.70125 23 35 C22.01 34.67 21.02 34.34 20 34 C20 33.34 20 32.68 20 32 C14.04012495 28.69644935 7.57926456 28.48170818 1 30 C1 30.66 1 31.32 1 32 C0.360625 32.474375 -0.27875 32.94875 -0.9375 33.4375 C-3.28372963 34.9091365 -3.28372963 34.9091365 -4 38 C-8.0916861 39.80795432 -11.55719328 40.21156222 -16 40 C-15.278125 39.34 -14.55625 38.68 -13.8125 38 C-3.7905553 27.77988125 -1.73199757 13.71924388 0 0 Z " fill="#BB1C33" transform="translate(177,104)"/>
<path d="M0 0 C3.8125 0.75 3.8125 0.75 6.3125 2.9375 C7.97816349 6.06061905 8.38981463 7.28611221 7.8125 10.75 C6.86257438 13.10416349 5.86297644 15.43895182 4.8125 17.75 C3.45506148 22.45323768 2.58441293 26.9370345 3.8125 31.75 C6.06355492 34.3537347 8.51125595 36.37181862 11.19140625 38.52734375 C15.96286307 42.57348225 19.73736687 47.51628447 20.6875 53.8125 C20.72875 54.781875 20.77 55.75125 20.8125 56.75 C20.4825 56.09 20.1525 55.43 19.8125 54.75 C17.84483469 53.99320565 15.83274799 53.3525301 13.8125 52.75 C13.13316406 52.48832031 12.45382813 52.22664063 11.75390625 51.95703125 C1.86990226 48.40679036 -9.06608043 48.10343403 -18.875 51.9375 C-23.18530782 53.99615448 -26.18836099 56.05106189 -29.1875 59.75 C-29.8475 60.41 -30.5075 61.07 -31.1875 61.75 C-31.5175 60.1 -31.8475 58.45 -32.1875 56.75 C-23.32602601 47.94551298 -14.35655819 47.25199529 -2.1875 46.75 C-2.8475 45.1 -3.5075 43.45 -4.1875 41.75 C-0.77728257 42.53697325 2.50135166 43.62119943 5.8125 44.75 C6.65203267 41.55095012 6.65203267 41.55095012 5.8125 37.75 C-0.10725898 31.68929437 -8.39706811 28.65467993 -16.1875 25.75 C-15.58550781 25.45351563 -14.98351562 25.15703125 -14.36328125 24.8515625 C-8.69824121 21.98344528 -4.82818204 18.4759663 -0.80078125 13.65234375 C0.8125 11.75 0.8125 11.75 2.5078125 10.171875 C4.09368409 8.74000993 4.09368409 8.74000993 4 6.0625 C3.938125 5.299375 3.87625 4.53625 3.8125 3.75 C1.17679221 3.36239591 -0.55634688 3.31019893 -2.78515625 4.86328125 C-4.26036455 6.15001085 -5.72442596 7.44948974 -7.1875 8.75 C-7.8475 8.75 -8.5075 8.75 -9.1875 8.75 C-9.435 9.45125 -9.6825 10.1525 -9.9375 10.875 C-11.36396349 14.15586602 -13.0415238 16.8886984 -15.1875 19.75 C-16.1775 20.08 -17.1675 20.41 -18.1875 20.75 C-16.64748832 12.81714915 -8.71336652 0.59813462 0 0 Z " fill="#E26074" transform="translate(148.1875,2.25)"/>
<path d="M0 0 C8.55589098 3.54195487 15.80911296 9.37497976 19.5 18 C22.80319734 28.53807646 21.83368339 41.45240073 19 52 C18.34 52.99 17.68 53.98 17 55 C11.125 54.125 11.125 54.125 10 53 C10.09489485 51.16332544 10.25405182 49.32995225 10.4375 47.5 C12.60295693 31.27769867 12.60295693 31.27769867 7.62109375 16.5703125 C3.64009648 12.71402116 -0.34501504 9.72217526 -5.4375 7.5 C-8 6 -8 6 -8.875 2.8125 C-8.91625 1.884375 -8.9575 0.95625 -9 0 C-5.91515299 -1.54242351 -3.20548852 -0.8714541 0 0 Z " fill="#FAD5DE" transform="translate(154,56)"/>
<path d="M0 0 C1.57624467 1.57624467 1.5230402 3.39495983 1.90234375 5.56640625 C2.06959961 6.51845947 2.23685547 7.4705127 2.40917969 8.45141602 C3.2889012 13.63177242 4.15795826 18.81337191 5 24 C5.12584473 24.75925781 5.25168945 25.51851562 5.38134766 26.30078125 C10.14311171 55.71377659 10.14311171 55.71377659 6 64 C3.69 64 1.38 64 -1 64 C-2.47629221 61.04741558 -2.29483135 57.99062471 -2.4296875 54.74609375 C-2.50354569 53.23500838 -2.57777794 51.72394125 -2.65234375 50.21289062 C-2.76412009 47.85082909 -2.8728019 45.48875479 -2.97412109 43.1262207 C-3.23161801 25.07947478 -3.23161801 25.07947478 -8 8 C-8.13415472 5.3276379 -8.04318541 2.67749512 -8 0 C-5.11795733 -1.44102133 -3.08226581 -0.65580124 0 0 Z " fill="#F9D6DF" transform="translate(54,32)"/>
<path d="M0 0 C3.63303781 3.61987463 6.38168172 7.85055347 9.17578125 12.125 C10.76032087 14.54400132 12.38879808 16.86245868 14.15625 19.1484375 C11.18625 19.6434375 11.18625 19.6434375 8.15625 20.1484375 C7.95 19.1584375 7.74375 18.1684375 7.53125 17.1484375 C6.16184423 12.35066127 3.32570694 8.91858952 0.15625 5.1484375 C-0.6275 4.1790625 -1.41125 3.2096875 -2.21875 2.2109375 C-5.81251428 -0.61273444 -8.32508637 -0.62179994 -12.84375 -0.8515625 C-13.76965607 1.40995709 -13.76965607 1.40995709 -13.84375 4.1484375 C-11.86767284 6.59531476 -11.86767284 6.59531476 -9.09375 8.7109375 C-2.8407964 13.86515782 -2.8407964 13.86515782 -0.84375 17.1484375 C-1.15625 19.8984375 -1.15625 19.8984375 -1.84375 22.1484375 C-6.19729956 21.65284955 -8.14441031 20.34756151 -11.15625 17.2109375 C-11.85363281 16.50066406 -12.55101563 15.79039063 -13.26953125 15.05859375 C-14.84375 13.1484375 -14.84375 13.1484375 -14.84375 11.1484375 C-15.4625 10.8803125 -16.08125 10.6121875 -16.71875 10.3359375 C-18.84375 9.1484375 -18.84375 9.1484375 -20.84375 6.1484375 C-21.30731672 2.51716483 -21.34020069 0.82875881 -19.15625 -2.1640625 C-12.60244124 -6.9465716 -5.88529318 -4.64032731 0 0 Z " fill="#E75B71" transform="translate(88.84375,6.8515625)"/>
<path d="M0 0 C7.01123596 0.23370787 7.01123596 0.23370787 10.5 2.9375 C11.325 3.948125 12.15 4.95875 13 6 C14.03060547 7.14275391 14.03060547 7.14275391 15.08203125 8.30859375 C21.52671801 15.72393386 21.52671801 15.72393386 21.5625 20.0625 C21 23 21 23 20 24 C17.6875 24.375 17.6875 24.375 15 24 C13.125 22 13.125 22 11 19 C7.01208381 14.15194502 2.95115846 9.8643188 -2 6 C-1.125 1.125 -1.125 1.125 0 0 Z " fill="#F6A7B9" transform="translate(76,5)"/>
<path d="M0 0 C1.20740845 0.02042358 1.20740845 0.02042358 2.43920898 0.04125977 C16.34899286 0.41149286 16.34899286 0.41149286 19.3125 3.375 C19.3125 5.355 19.3125 7.335 19.3125 9.375 C9.4125 9.375 -0.4875 9.375 -10.6875 9.375 C-11.3475 7.725 -12.0075 6.075 -12.6875 4.375 C-9.0909911 -0.5039102 -5.59301758 -0.18336826 0 0 Z " fill="#F9D7E0" transform="translate(192.6875,82.625)"/>
<path d="M0 0 C9.9 0 19.8 0 30 0 C29.67 1.65 29.34 3.3 29 5 C28.34 4.67 27.68 4.34 27 4 C21.82438505 3.25878055 21.82438505 3.25878055 17.1640625 5.17578125 C12.68341878 9.4232693 9.59343735 14.54708478 6.48046875 19.83984375 C5.74763672 20.90912109 5.74763672 20.90912109 5 22 C4.34 22 3.68 22 3 22 C3 15.4 3 8.8 3 2 C2.01 1.67 1.02 1.34 0 1 C0 0.67 0 0.34 0 0 Z " fill="#FBF2F5" transform="translate(125,0)"/>
<path d="M0 0 C1.32 0 2.64 0 4 0 C3.87431641 0.92232422 3.87431641 0.92232422 3.74609375 1.86328125 C3.64425781 2.67152344 3.54242188 3.47976562 3.4375 4.3125 C3.33308594 5.11300781 3.22867188 5.91351563 3.12109375 6.73828125 C2.85244822 9.16817116 2.85244822 9.16817116 4 12 C7.96 12 11.92 12 16 12 C16 12.33 16 12.66 16 13 C16.97839844 12.98259766 16.97839844 12.98259766 17.9765625 12.96484375 C22.7761914 12.91529006 27.27784685 13.00586249 32 14 C32.495 15.485 32.495 15.485 33 17 C32.26885986 16.98952637 31.53771973 16.97905273 30.78442383 16.96826172 C27.46048441 16.92659711 24.13660005 16.90064044 20.8125 16.875 C19.08676758 16.84986328 19.08676758 16.84986328 17.32617188 16.82421875 C16.21435547 16.81777344 15.10253906 16.81132813 13.95703125 16.8046875 C12.93585205 16.79421387 11.91467285 16.78374023 10.86254883 16.77294922 C6.71733382 17.10173813 3.94990272 18.05009728 1 21 C-1.125 20.625 -1.125 20.625 -3 20 C-2.88613541 17.22829605 -2.75939222 14.45821954 -2.625 11.6875 C-2.5940625 10.90181641 -2.563125 10.11613281 -2.53125 9.30664062 C-2.49257812 8.54931641 -2.45390625 7.79199219 -2.4140625 7.01171875 C-2.3826416 6.31522217 -2.3512207 5.61872559 -2.31884766 4.90112305 C-2 3 -2 3 0 0 Z " fill="#F1ADBC" transform="translate(178,80)"/>
<path d="M0 0 C1 1 1 1 1.328125 3.28125 C0.88486395 6.95398442 -0.55267523 8.02890247 -3.25 10.5 C-6.44661446 13.51538907 -9.37247781 16.45855705 -12 20 C-13.65 19.67 -15.3 19.34 -17 19 C-18.04318157 16.43216845 -18.28003396 14.69579866 -17.234375 12.09765625 C-13.48656701 5.58896303 -8.0450984 -0.76102282 0 0 Z " fill="#F4A9B7" transform="translate(152,5)"/>
<path d="M0 0 C4.55555556 0.55555556 4.55555556 0.55555556 6 2 C6.33523333 8.14594435 5.78168367 14.08305053 4 20 C3.34 20.66 2.68 21.32 2 22 C-2.55555556 21.44444444 -2.55555556 21.44444444 -4 20 C-3.85640408 16.65160418 -3.38787217 13.32803896 -3 10 C-2.92652344 9.21753906 -2.85304688 8.43507813 -2.77734375 7.62890625 C-2.23278061 2.23278061 -2.23278061 2.23278061 0 0 Z " fill="#FCA1B2" transform="translate(118,1)"/>
<path d="M0 0 C14.05801003 23.49249676 9.41382145 63.54089341 9 90 C8.67 90 8.34 90 8 90 C7.95512451 88.92967529 7.91024902 87.85935059 7.86401367 86.7565918 C6.49635637 51.73250108 6.49635637 51.73250108 2 17 C1.67 17 1.34 17 1 17 C0.1679418 11.27959989 -0.12036664 5.77759884 0 0 Z " fill="#B23448" transform="translate(209,160)"/>
<path d="M0 0 C0.33 0.66 0.66 1.32 1 2 C2.32 1.67 3.64 1.34 5 1 C5.33 1.99 5.66 2.98 6 4 C7.65 4.33 9.3 4.66 11 5 C11 5.66 11 6.32 11 7 C11.66 7 12.32 7 13 7 C13 7.66 13 8.32 13 9 C18.445 9.495 18.445 9.495 24 10 C24 10.66 24 11.32 24 12 C24.66 12 25.32 12 26 12 C26 12.66 26 13.32 26 14 C26.66 14 27.32 14 28 14 C28 14.66 28 15.32 28 16 C28.969375 16.103125 29.93875 16.20625 30.9375 16.3125 C41.85267857 17.85267857 41.85267857 17.85267857 45 21 C48.41775599 21.65581941 51.83859238 22.24892093 55.2734375 22.80664062 C57.19437443 23.14124426 59.09940737 23.56444752 61 24 C61.495 24.99 61.495 24.99 62 26 C39.05430949 23.41059805 17.20174702 14.80116468 -2 2 C-1.34 1.34 -0.68 0.68 0 0 Z " fill="#9B2037" transform="translate(84,257)"/>
<path d="M0 0 C0 1.65 0 3.3 0 5 C-2.56151683 5.81571218 -5.12412628 6.62766131 -7.6875 7.4375 C-8.7693457 7.78264648 -8.7693457 7.78264648 -9.87304688 8.13476562 C-17.42793808 10.51507381 -17.42793808 10.51507381 -21 11 C-22 10 -22 10 -22.0625 7.4375 C-22.041875 6.633125 -22.02125 5.82875 -22 5 C-14.48641103 1.38521493 -8.38785271 -0.83507383 0 0 Z " fill="#FBD2DD" transform="translate(202,64)"/>
<path d="M0 0 C0.79148437 -0.01417969 1.58296875 -0.02835937 2.3984375 -0.04296875 C4.625 0.1875 4.625 0.1875 7.625 2.1875 C7.96557617 4.06689453 7.96557617 4.06689453 7.91796875 6.3203125 C7.90830078 7.12597656 7.89863281 7.93164062 7.88867188 8.76171875 C7.86353516 9.60347656 7.83839844 10.44523438 7.8125 11.3125 C7.79219727 12.58673828 7.79219727 12.58673828 7.77148438 13.88671875 C7.73608219 15.98724837 7.68227401 18.08745293 7.625 20.1875 C7.295 20.1875 6.965 20.1875 6.625 20.1875 C6.295 15.5675 5.965 10.9475 5.625 6.1875 C5.33625 8.311875 5.0475 10.43625 4.75 12.625 C4.2578125 16.24609375 4.2578125 16.24609375 3.625 19.1875 C2.965 19.5175 2.305 19.8475 1.625 20.1875 C1.955 14.5775 2.285 8.9675 2.625 3.1875 C0.975 2.8575 -0.675 2.5275 -2.375 2.1875 C-4.21837385 4.03087385 -4.06114624 6.95077741 -4.4375 9.4375 C-4.61410156 10.57703125 -4.79070312 11.7165625 -4.97265625 12.890625 C-5.74205478 18.18972388 -5.74205478 18.18972388 -4.375 23.1875 C-6.025 23.1875 -7.675 23.1875 -9.375 23.1875 C-9.375 22.1975 -9.375 21.2075 -9.375 20.1875 C-10.035 20.1875 -10.695 20.1875 -11.375 20.1875 C-11.375 20.8475 -11.375 21.5075 -11.375 22.1875 C-12.035 21.8575 -12.695 21.5275 -13.375 21.1875 C-12.50875 19.8571875 -12.50875 19.8571875 -11.625 18.5 C-8.96576812 13.91022256 -7.65762832 8.95701262 -6.20703125 3.8828125 C-4.9382102 -0.22745286 -4.09307107 0.03311546 0 0 Z " fill="#E47184" transform="translate(120.375,-0.1875)"/>
<path d="M0 0 C1.65 0 3.3 0 5 0 C4.5334233 3.18827414 3.9490094 6.16571945 3 9.25 C1.78151683 13.81931188 1.3596221 18.29652153 1 23 C0.34 23 -0.32 23 -1 23 C-1.33 21.68 -1.66 20.36 -2 19 C-2.33 24.61 -2.66 30.22 -3 36 C-3.33 36 -3.66 36 -4 36 C-4.82555811 11.22373113 -4.82555811 11.22373113 0 0 Z " fill="#E15E73" transform="translate(67,56)"/>
<path d="M0 0 C0.99 0.33 1.98 0.66 3 1 C2.78561279 1.54640137 2.57122559 2.09280273 2.3503418 2.65576172 C-0.39082106 10.49700372 -0.34683437 17.88863886 -0.1875 26.125 C-0.17241432 27.47654746 -0.15873283 28.82811135 -0.14648438 30.1796875 C-0.11140724 33.45355371 -0.06225097 36.7265568 0 40 C-3.3 41.32 -6.6 42.64 -10 44 C-9.67 43.01 -9.34 42.02 -9 41 C-6.525 40.505 -6.525 40.505 -4 40 C-3.98018066 39.20416504 -3.96036133 38.40833008 -3.93994141 37.58837891 C-3.84386142 33.93362362 -3.73452176 30.2793762 -3.625 26.625 C-3.57859375 24.74748047 -3.57859375 24.74748047 -3.53125 22.83203125 C-3.00266236 6.00532472 -3.00266236 6.00532472 0 0 Z " fill="#F69DAC" transform="translate(64,58)"/>
<path d="M0 0 C3.8125 0.75 3.8125 0.75 6.3125 2.9375 C7.88712392 5.88991985 8.18784065 7.46576929 7.8125 10.75 C6.8225 10.75 5.8325 10.75 4.8125 10.75 C2.66221696 11.69978897 2.66221696 11.69978897 0.8125 12.75 C1.3075 12.193125 1.8025 11.63625 2.3125 11.0625 C4.06004367 8.36837017 4.07468749 6.89624993 3.8125 3.75 C1.17679221 3.36239591 -0.55634688 3.31019893 -2.78515625 4.86328125 C-4.26036455 6.15001085 -5.72442596 7.44948974 -7.1875 8.75 C-7.8475 8.75 -8.5075 8.75 -9.1875 8.75 C-9.435 9.45125 -9.6825 10.1525 -9.9375 10.875 C-11.36396349 14.15586602 -13.0415238 16.8886984 -15.1875 19.75 C-16.1775 20.08 -17.1675 20.41 -18.1875 20.75 C-16.64748832 12.81714915 -8.71336652 0.59813462 0 0 Z " fill="#D56F84" transform="translate(148.1875,2.25)"/>
<path d="M0 0 C5.1601228 5.1601228 8.57819428 15.80392205 10 23 C9.5703125 25.25 9.5703125 25.25 9 27 C8.34 24.69 7.68 22.38 7 20 C6.34 20 5.68 20 5 20 C4.896875 19.360625 4.79375 18.72125 4.6875 18.0625 C4.3471875 17.0415625 4.3471875 17.0415625 4 16 C3.01 15.67 2.02 15.34 1 15 C1 14.34 1 13.68 1 13 C-0.32 12.34 -1.64 11.68 -3 11 C-2.67 9.02 -2.34 7.04 -2 5 C-1.34 5 -0.68 5 0 5 C0 3.35 0 1.7 0 0 Z " fill="#BC2D42" transform="translate(196,123)"/>
<path d="M0 0 C5.84262625 3.8410929 9.42046294 9.27253129 13.1796875 15.0234375 C14.76422712 17.44243882 16.39270433 19.76089618 18.16015625 22.046875 C16.18015625 22.376875 14.20015625 22.706875 12.16015625 23.046875 C11.95390625 22.056875 11.74765625 21.066875 11.53515625 20.046875 C10.16417492 15.24357871 7.32193874 11.8283033 4.16015625 8.046875 C3.43828125 7.098125 2.71640625 6.149375 1.97265625 5.171875 C-1.68629401 2.40733481 -4.929843 2.0130456 -9.4140625 1.40625 C-11.83984375 1.046875 -11.83984375 1.046875 -13.83984375 0.046875 C-8.64482783 -2.05586954 -5.101543 -2.64283756 0 0 Z " fill="#DC6D82" transform="translate(84.83984375,3.953125)"/>
<path d="M0 0 C2.875 2.125 2.875 2.125 5 5 C5.3125 8.3125 5.3125 8.3125 5 11 C4.34 11 3.68 11 3 11 C2.34 10.01 1.68 9.02 1 8 C0.67 8 0.34 8 0 8 C0 6.35 0 4.7 0 3 C-7.38605667 3.95703478 -14.14117712 5.04129209 -21 8 C-21 7.34 -21 6.68 -21 6 C-22.98 6.33 -24.96 6.66 -27 7 C-27.33 5.68 -27.66 4.36 -28 3 C-26.1746875 3.37125 -26.1746875 3.37125 -24.3125 3.75 C-18.75332472 4.40971226 -14.3055964 2.78040408 -9.11328125 0.91015625 C-5.85684594 -0.04185056 -3.37192422 -0.31685683 0 0 Z " fill="#EABCC7" transform="translate(202,61)"/>
<path d="M0 0 C2.48044315 3.72066472 2.44381173 6.86540474 2.625 11.1875 C2.66367187 11.93708984 2.70234375 12.68667969 2.7421875 13.45898438 C2.83628216 15.30559199 2.91922319 17.1527619 3 19 C-0.58369113 17.80543629 -1.45566174 16.30793073 -3.19921875 13.04296875 C-4.61050349 9.44247159 -4.51243334 6.84325006 -4 3 C-2 1 -2 1 0 0 Z " fill="#A30721" transform="translate(61,149)"/>
<path d="M0 0 C-1.98 0.66 -3.96 1.32 -6 2 C-5.67 3.65 -5.34 5.3 -5 7 C-8.30994713 8.65497356 -11.99123 8.10084335 -15.625 8.0625 C-16.42679688 8.05798828 -17.22859375 8.05347656 -18.0546875 8.04882812 C-20.03649006 8.03703168 -22.01825433 8.01909605 -24 8 C-19.67370583 3.10151854 -6.32093458 -3.16046729 0 0 Z " fill="#FCEDF3" transform="translate(207,73)"/>
<path d="M0 0 C0.66 0.33 1.32 0.66 2 1 C2 4 2 4 0.71484375 5.421875 C-2.86426499 8.09637384 -4.29465339 9.03358793 -8.9375 8.8125 C-9.948125 8.544375 -10.95875 8.27625 -12 8 C-12 7.67 -12 7.34 -12 7 C-8.535 6.505 -8.535 6.505 -5 6 C-5 5.34 -5 4.68 -5 4 C-6.25296875 4.03480469 -7.5059375 4.06960937 -8.796875 4.10546875 C-10.44790324 4.13361128 -12.09894601 4.16091094 -13.75 4.1875 C-14.9875 4.22520508 -14.9875 4.22520508 -16.25 4.26367188 C-22.42297754 4.33834499 -22.42297754 4.33834499 -25.578125 2.48828125 C-26.04734375 1.99714844 -26.5165625 1.50601563 -27 1 C-11.25512528 0.81548975 -11.25512528 0.81548975 -4 2 C-4 2.66 -4 3.32 -4 4 C-3.01 4 -2.02 4 -1 4 C-0.67 2.68 -0.34 1.36 0 0 Z " fill="#F1B6C5" transform="translate(215,90)"/>
<path d="M0 0 C0.99 0 1.98 0 3 0 C2.27899687 23.72100313 2.27899687 23.72100313 -4 30 C-3.71810446 26.68659433 -3.42266008 23.37452369 -3.125 20.0625 C-3.00705078 18.67321289 -3.00705078 18.67321289 -2.88671875 17.25585938 C-2.34828126 11.35375617 -1.40570038 5.75864651 0 0 Z " fill="#F4A2B4" transform="translate(174,103)"/>
<path d="M0 0 C0.99 0 1.98 0 3 0 C2.86722656 0.85722656 2.73445313 1.71445312 2.59765625 2.59765625 C2.42105469 3.74105469 2.24445313 4.88445313 2.0625 6.0625 C1.87945312 7.24714844 1.69640625 8.43179688 1.5078125 9.65234375 C1.13021675 12.14157113 0.77162951 14.62980705 0.4375 17.125 C0 20 0 20 -1 23 C-2.32 23 -3.64 23 -5 23 C-4.74421622 20.10212027 -4.47099197 17.20768966 -4.1875 14.3125 C-4.08211914 13.08756836 -4.08211914 13.08756836 -3.97460938 11.83789062 C-3.51242632 7.27152204 -3.06118368 3.6393249 0 0 Z " fill="#F2ABBB" transform="translate(75,56)"/>
<path d="M0 0 C0.33 1.32 0.66 2.64 1 4 C0.01 4.495 0.01 4.495 -1 5 C-1.84228734 7.2931383 -2.46932939 9.61494957 -3.12109375 11.96875 C-3.41113281 12.6390625 -3.70117188 13.309375 -4 14 C-4.99 14.33 -5.98 14.66 -7 15 C-8.69882448 17.49759982 -8.69882448 17.49759982 -10 20 C-10.99 19.67 -11.98 19.34 -13 19 C-13 17.68 -13 16.36 -13 15 C-12.34 15 -11.68 15 -11 15 C-10.67 14.01 -10.34 13.02 -10 12 C-9.34 11.67 -8.68 11.34 -8 11 C-7.5978125 9.576875 -7.5978125 9.576875 -7.1875 8.125 C-5.76451284 4.38029694 -4.47151864 3.78026597 -1 2 C-0.67 1.34 -0.34 0.68 0 0 Z " fill="#EB566F" transform="translate(154,10)"/>
<path d="M0 0 C4.76300845 0.15876695 7.05303812 0.24243049 10.8125 3.25 C12.79973016 5.7482322 14.4784274 8.1971031 16 11 C14.68 11 13.36 11 12 11 C12 9.68 12 8.36 12 7 C11.443125 6.87625 10.88625 6.7525 10.3125 6.625 C7.77885636 5.94023145 5.42078968 5.00866237 3 4 C3 4.66 3 5.32 3 6 C3.66 6.33 4.32 6.66 5 7 C4.34 7 3.68 7 3 7 C2.67 7.66 2.34 8.32 2 9 C0.68 8.01 -0.64 7.02 -2 6 C-1.125 1.125 -1.125 1.125 0 0 Z " fill="#F4A2AD" transform="translate(76,5)"/>
<path d="M0 0 C0.66 1.32 1.32 2.64 2 4 C2.99 3.67 3.98 3.34 5 3 C4.1875 4.9375 4.1875 4.9375 3 7 C2.01 7.33 1.02 7.66 0 8 C-0.185625 9.2065625 -0.185625 9.2065625 -0.375 10.4375 C-0.58125 11.283125 -0.7875 12.12875 -1 13 C-3.49092811 14.24546405 -4.41080733 13.7767578 -7 13 C-5.58832253 7.73829306 -3.25149768 4.27828642 0 0 Z " fill="#E87C8E" transform="translate(75,43)"/>
<path d="M0 0 C0.36263859 5.8022175 -0.74315457 9.63999211 -3 15 C-4.32 15 -5.64 15 -7 15 C-6.67 10.38 -6.34 5.76 -6 1 C-1 0 -1 0 0 0 Z " fill="#F0ACBA" transform="translate(123,5)"/>
<path d="M0 0 C0 0.33 0 0.66 0 1 C-9.26514215 2.10393183 -18.05751741 3.11042873 -27 0 C-27 -0.33 -27 -0.66 -27 -1 C-17.87755283 -2.71217102 -8.88640807 -2.78789273 0 0 Z " fill="#FC9BAF" transform="translate(136,29)"/>
<path d="M0 0 C0.33 0 0.66 0 1 0 C1.78493495 3.46906952 2.12827119 6.67624868 2.1328125 10.23046875 C2.13410156 11.19791016 2.13539062 12.16535156 2.13671875 13.16210938 C2.13285156 14.16048828 2.12898438 15.15886719 2.125 16.1875 C2.12886719 17.19748047 2.13273437 18.20746094 2.13671875 19.24804688 C2.13542969 20.21162109 2.13414063 21.17519531 2.1328125 22.16796875 C2.13168457 23.04735107 2.13055664 23.9267334 2.12939453 24.83276367 C2 27 2 27 1 29 C0.34 29 -0.32 29 -1 29 C-1.16831537 19.29381339 -0.64217298 9.67846426 0 0 Z " fill="#FCCBD4" transform="translate(59,67)"/>
<path d="M0 0 C4.27885473 5.10702016 5.44735448 8.28968275 5 15 C3.44017293 19.30809383 1.45685857 23.13922225 -1 27 C-1.66 25.68 -2.32 24.36 -3 23 C-2.65066406 22.55269531 -2.30132812 22.10539062 -1.94140625 21.64453125 C1.81124987 16.82764181 1.81124987 16.82764181 3 11 C2.05007438 8.64583651 1.05047644 6.31104818 0 4 C0 2.68 0 1.36 0 0 Z " fill="#DD6075" transform="translate(116,83)"/>
<path d="M0 0 C0.66 0.33 1.32 0.66 2 1 C1.83701416 1.70213623 1.67402832 2.40427246 1.50610352 3.12768555 C0.97580448 6.13731803 0.88668043 8.90268462 0.90234375 11.95703125 C0.90556641 13.06884766 0.90878906 14.18066406 0.91210938 15.32617188 C0.92048828 16.47666016 0.92886719 17.62714844 0.9375 18.8125 C0.94201172 19.98232422 0.94652344 21.15214844 0.95117188 22.35742188 C0.9629307 25.23833358 0.97936574 28.11914044 1 31 C-2.28330144 28.07651242 -2.95866933 25.24542505 -4 21 C-3.34 20.67 -2.68 20.34 -2 20 C-2.02320312 18.80761719 -2.04640625 17.61523438 -2.0703125 16.38671875 C-2.08907178 14.82031876 -2.10727181 13.253912 -2.125 11.6875 C-2.14175781 10.90181641 -2.15851562 10.11613281 -2.17578125 9.30664062 C-2.18544922 8.1706543 -2.18544922 8.1706543 -2.1953125 7.01171875 C-2.20578613 6.31522217 -2.21625977 5.61872559 -2.22705078 4.90112305 C-2 3 -2 3 0 0 Z " fill="#9D142B" transform="translate(25,170)"/>
<path d="M0 0 C1.37478516 0.01740234 1.37478516 0.01740234 2.77734375 0.03515625 C3.69644531 0.04417969 4.61554688 0.05320313 5.5625 0.0625 C6.27277344 0.07410156 6.98304687 0.08570313 7.71484375 0.09765625 C8.04484375 0.75765625 8.37484375 1.41765625 8.71484375 2.09765625 C7.88339844 2.38769531 7.88339844 2.38769531 7.03515625 2.68359375 C6.31070313 2.94398437 5.58625 3.204375 4.83984375 3.47265625 C4.12054688 3.72789063 3.40125 3.983125 2.66015625 4.24609375 C0.53326381 5.03643408 0.53326381 5.03643408 -1.28515625 7.09765625 C-1.50192033 10.49362688 -1.36589477 12.8554407 -0.28515625 16.09765625 C-1.27515625 16.09765625 -2.26515625 16.09765625 -3.28515625 16.09765625 C-3.61515625 12.46765625 -3.94515625 8.83765625 -4.28515625 5.09765625 C-2.96515625 4.76765625 -1.64515625 4.43765625 -0.28515625 4.09765625 C-0.28515625 3.43765625 -0.28515625 2.77765625 -0.28515625 2.09765625 C-1.27515625 1.76765625 -2.26515625 1.43765625 -3.28515625 1.09765625 C-2.28515625 0.09765625 -2.28515625 0.09765625 0 0 Z " fill="#FAEEED" transform="translate(70.28515625,-0.09765625)"/>
<path d="M0 0 C0.33 0 0.66 0 1 0 C2.65295129 5.12615663 3.35447489 9.75693744 3.5625 15.125 C3.75509183 19.50953738 4.13398452 23.69271246 5 28 C4.5625 31.3125 4.5625 31.3125 4 34 C1.85515677 30.78273516 1.65855266 29.45949427 1.3671875 25.703125 C1.28339844 24.6615625 1.19960938 23.62 1.11328125 22.546875 C1.03464844 21.45890625 0.95601562 20.3709375 0.875 19.25 C0.78863281 18.1775 0.70226563 17.105 0.61328125 16 C0.19834465 10.65192824 -0.1072762 5.36380999 0 0 Z " fill="#EBB7C3" transform="translate(35,41)"/>
<path d="M0 0 C0.98120464 3.05263664 0.98120464 4.94736336 0 8 C-0.66 8 -1.32 8 -2 8 C-1.690625 8.61875 -1.38125 9.2375 -1.0625 9.875 C-0.375 11.25 0.3125 12.625 1 14 C-3.17737474 15.59138085 -6.53160785 16.21278058 -11 16 C-10.278125 15.34 -9.55625 14.68 -8.8125 14 C-4.84764204 10.04643793 -1.76989147 5.30967442 0 0 Z " fill="#BA2841" transform="translate(172,128)"/>
<path d="M0 0 C1.72953968 0.62396703 3.458615 1.24922128 5.1875 1.875 C6.15042969 2.22304687 7.11335937 2.57109375 8.10546875 2.9296875 C9.06066406 3.28289062 10.01585937 3.63609375 11 4 C11.92425781 4.31195313 12.84851563 4.62390625 13.80078125 4.9453125 C14.52652344 5.29335937 15.25226563 5.64140625 16 6 C16.33 6.99 16.66 7.98 17 9 C9.83292123 8.67422369 4.23072876 5.34556372 -2 2 C-1.34 1.34 -0.68 0.68 0 0 Z " fill="#F995A8" transform="translate(131,134)"/>
<path d="M0 0 C3.79392709 -0.35292345 5.5073063 -0.34373979 8.6875 1.875 C9.450625 2.57625 10.21375 3.2775 11 4 C11.99 4.66 12.98 5.32 14 6 C15.1875 8.625 15.1875 8.625 16 11 C11.87321179 9.55901911 8.69813572 7.52700506 5.1875 4.9375 C4.21167969 4.22464844 3.23585938 3.51179687 2.23046875 2.77734375 C1.49441406 2.19082031 0.75835937 1.60429687 0 1 C0 0.67 0 0.34 0 0 Z " fill="#9D1D33" transform="translate(64,246)"/>
<path d="M0 0 C3.4197054 0.04297655 3.9741837 0.18834824 6.6875 2.5625 C8.26212392 5.51491985 8.56284065 7.09076929 8.1875 10.375 C7.1975 10.375 6.2075 10.375 5.1875 10.375 C3.03721696 11.32478897 3.03721696 11.32478897 1.1875 12.375 C1.6825 11.818125 2.1775 11.26125 2.6875 10.6875 C4.43504367 7.99337017 4.44968749 6.52124993 4.1875 3.375 C0.98847361 3.28613816 -1.73927456 3.46441469 -4.8125 4.375 C-4.8125 -0.07973243 -4.58786394 0.45126531 0 0 Z " fill="#E17089" transform="translate(147.8125,2.625)"/>
<path d="M0 0 C1.60495567 0.11442461 3.20898119 0.24194694 4.8125 0.375 C5.70582031 0.44460938 6.59914063 0.51421875 7.51953125 0.5859375 C10 1 10 1 13 3 C16.4500296 3.71726187 19.89222673 4.30490023 23.37109375 4.85546875 C25.25870202 5.17639666 27.13149083 5.581989 29 6 C29.33 6.66 29.66 7.32 30 8 C24.31919895 7.37735853 18.86637281 6.3976133 13.3125 5.0625 C12.57966797 4.89298828 11.84683594 4.72347656 11.09179688 4.54882812 C7.24568917 3.63672143 3.6322286 2.59760745 0 1 C0 0.67 0 0.34 0 0 Z " fill="#9E2D41" transform="translate(116,275)"/>
<path d="M0 0 C0.33 1.32 0.66 2.64 1 4 C0.360625 4.391875 -0.27875 4.78375 -0.9375 5.1875 C-3.43778819 7.38472296 -3.64950425 8.75791433 -4 12 C-2.35 12 -0.7 12 1 12 C0.01 13.485 0.01 13.485 -1 15 C-2.65 14.67 -4.3 14.34 -6 14 C-6.8125 12 -6.8125 12 -7 9 C-5.34859485 5.48580984 -3.55035599 1.77517799 0 0 Z " fill="#FC97AC" transform="translate(141,10)"/>
<path d="M0 0 C2.02558881 3.34939881 2.21738987 5.86962551 2.125 9.75 C2.10695312 10.73484375 2.08890625 11.7196875 2.0703125 12.734375 C2.04710937 13.48203125 2.02390625 14.2296875 2 15 C3.65 15.33 5.3 15.66 7 16 C7.33 17.65 7.66 19.3 8 21 C6.68677212 20.02180976 5.37443848 19.0424189 4.0625 18.0625 C3.33160156 17.51722656 2.60070312 16.97195312 1.84765625 16.41015625 C0 15 0 15 -1 14 C-1.09919077 12.39836084 -1.12969898 10.79220082 -1.125 9.1875 C-1.12757813 8.31480469 -1.13015625 7.44210938 -1.1328125 6.54296875 C-1.01114834 4.21345785 -0.65514709 2.23061985 0 0 Z " fill="#FCDBE0" transform="translate(152,20)"/>
<path d="M0 0 C1.32 0 2.64 0 4 0 C4.33 1.32 4.66 2.64 5 4 C6.32 4.33 7.64 4.66 9 5 C8.67 5.66 8.34 6.32 8 7 C8.99 6.67 9.98 6.34 11 6 C11 6.99 11 7.98 11 9 C11.99 9.33 12.98 9.66 14 10 C13.67 10.99 13.34 11.98 13 13 C11.20127688 11.59230365 9.41125032 10.17348997 7.625 8.75 C6.62726562 7.96109375 5.62953125 7.1721875 4.6015625 6.359375 C2.26907982 4.24403035 1.10149667 2.89308764 0 0 Z " fill="#992337" transform="translate(50,233)"/>
<path d="M0 0 C2.62429743 3.13709118 3.95420147 6.13194468 5.25 10 C5.60578125 11.03125 5.9615625 12.0625 6.328125 13.125 C6.9907779 15.96053799 7.00586171 17.31770211 6 20 C5.34 17.69 4.68 15.38 4 13 C3.34 13 2.68 13 2 13 C1.896875 12.360625 1.79375 11.72125 1.6875 11.0625 C1.460625 10.381875 1.23375 9.70125 1 9 C0.01 8.67 -0.98 8.34 -2 8 C-1.67 7.34 -1.34 6.68 -1 6 C-0.67 6.33 -0.34 6.66 0 7 C0 4.69 0 2.38 0 0 Z " fill="#B62E47" transform="translate(199,130)"/>
<path d="M0 0 C2.86134241 3.46273075 5.36574534 7.00686276 7.75 10.8125 C8.36359375 11.78832031 8.9771875 12.76414063 9.609375 13.76953125 C10.06828125 14.50558594 10.5271875 15.24164063 11 16 C10.01 16.33 9.02 16.66 8 17 C2.70015194 12.43116546 0.83129661 6.81663217 0 0 Z " fill="#F7D8DE" transform="translate(25,202)"/>
<path d="M0 0 C2.46800047 1.15173355 4.04783565 2.04783565 6 4 C6.1953125 6.6015625 6.1953125 6.6015625 6.125 9.625 C6.10695313 10.62789062 6.08890625 11.63078125 6.0703125 12.6640625 C6.03550781 13.82035156 6.03550781 13.82035156 6 15 C4.0549 12.08235 3.54723683 10.37462715 3 7 C2.34 7 1.68 7 1 7 C0.67 4.69 0.34 2.38 0 0 Z " fill="#B51B33" transform="translate(69,182)"/>
<path d="M0 0 C4.44607497 1.77842999 5.9797308 2.64414533 9 6 C8.01 6 7.02 6 6 6 C6 6.66 6 7.32 6 8 C4.02 7.34 2.04 6.68 0 6 C0 7.65 0 9.3 0 11 C-0.33 11 -0.66 11 -1 11 C-0.67 7.37 -0.34 3.74 0 0 Z " fill="#B82F45" transform="translate(177,104)"/>
<path d="M0 0 C0.33 0 0.66 0 1 0 C0.67 4.62 0.34 9.24 0 14 C0.66 14 1.32 14 2 14 C2 14.66 2 15.32 2 16 C1.01 16 0.02 16 -1 16 C-1 15.34 -1 14.68 -1 14 C-1.66 14 -2.32 14 -3 14 C-3.56359649 4.41885965 -3.56359649 4.41885965 0 0 Z " fill="#FA9CAD" transform="translate(116,107)"/>
<path d="M0 0 C0.33 1.32 0.66 2.64 1 4 C3.64 4.33 6.28 4.66 9 5 C9 5.33 9 5.66 9 6 C7.91332031 6.16435547 7.91332031 6.16435547 6.8046875 6.33203125 C1.30947981 7.23324531 -3.05488762 8.33724718 -8 11 C-8.66 10.67 -9.32 10.34 -10 10 C-10 9.34 -10 8.68 -10 8 C-7.69 7.34 -5.38 6.68 -3 6 C-2.814375 5.071875 -2.814375 5.071875 -2.625 4.125 C-2 2 -2 2 0 0 Z " fill="#E2667C" transform="translate(106,22)"/>
<path d="M0 0 C0.33 0.99 0.66 1.98 1 3 C-1.49570247 7.41966218 -5.15460724 11.70394906 -9 15 C-9.66 15 -10.32 15 -11 15 C-11 13.35 -11 11.7 -11 10 C-10.01 9.67 -9.02 9.34 -8 9 C-4.94745511 7.88998368 -4.18104431 7.38019304 -2.75 4.375 C-2.37875 3.199375 -2.37875 3.199375 -2 2 C-1.34 2 -0.68 2 0 2 C0 1.34 0 0.68 0 0 Z " fill="#991D32" transform="translate(214,263)"/>
<path d="M0 0 C1.32 0 2.64 0 4 0 C4 0.66 4 1.32 4 2 C4.66 2 5.32 2 6 2 C6 2.66 6 3.32 6 4 C6.66 4 7.32 4 8 4 C8 4.66 8 5.32 8 6 C10.31 6.33 12.62 6.66 15 7 C15 7.33 15 7.66 15 8 C9.33557626 7.63495936 4.99296295 6.9445679 0 4 C0 2.68 0 1.36 0 0 Z " fill="#97152D" transform="translate(104,267)"/>
<path d="M0 0 C2.16874252 0.50603992 3.99967627 0.99983813 6 2 C5.67 3.32 5.34 4.64 5 6 C4.01 6 3.02 6 2 6 C2.33 6.99 2.66 7.98 3 9 C1.02 9.66 -0.96 10.32 -3 11 C-3 10.34 -3 9.68 -3 9 C-2.01 9 -1.02 9 0 9 C0 8.071875 0 7.14375 0 6.1875 C0 4.125 0 2.0625 0 0 Z " fill="#F4A2B1" transform="translate(104,29)"/>
<path d="M0 0 C2.5 0.125 2.5 0.125 3.5 1.125 C4 3.3125 4 3.3125 3.5 6.125 C1.3677392 8.39585775 -1.00236218 10.27088621 -3.5 12.125 C-3.83 10.475 -4.16 8.825 -4.5 7.125 C-3.860625 7.021875 -3.22125 6.91875 -2.5625 6.8125 C-1.881875 6.585625 -1.20125 6.35875 -0.5 6.125 C-0.17 5.135 0.16 4.145 0.5 3.125 C-0.82 2.465 -2.14 1.805 -3.5 1.125 C-2.5 0.125 -2.5 0.125 0 0 Z " fill="#FCA1B1" transform="translate(149.5,4.875)"/>
<path d="M0 0 C0.66 1.32 1.32 2.64 2 4 C1.01 4.33 0.02 4.66 -1 5 C-1 5.66 -1 6.32 -1 7 C-2.65 7 -4.3 7 -6 7 C-6.28875 7.61875 -6.5775 8.2375 -6.875 8.875 C-8 11 -8 11 -10 13 C-10 8.97698923 -8.67577112 7.95743123 -6 5 C-4.05056443 3.25501743 -2.04941287 1.63021478 0 0 Z " fill="#991F34" transform="translate(38,111)"/>
<path d="M0 0 C1.01550834 3.15935928 0.80170286 4.83772762 0 8 C-0.21648378 9.91360971 -0.40256968 11.83083621 -0.5625 13.75 C-0.64628906 14.73484375 -0.73007813 15.7196875 -0.81640625 16.734375 C-0.87699219 17.48203125 -0.93757813 18.2296875 -1 19 C-3.70308147 14.9453778 -3.54301708 11.76123668 -3 7 C-2.2062105 4.48098014 -1.20764211 2.3649658 0 0 Z " fill="#FB96A8" transform="translate(117,64)"/>
<path d="M0 0 C1.65 0 3.3 0 5 0 C4.01 0.495 4.01 0.495 3 1 C4.86566488 4.62793998 4.86566488 4.62793998 8 7 C8.72693904 8.97888961 9.39816251 10.97954558 10 13 C9.01 13.495 9.01 13.495 8 14 C6.66101601 12.04532248 5.32870953 10.0866421 4 8.125 C3.2575 7.03445312 2.515 5.94390625 1.75 4.8203125 C0 2 0 2 0 0 Z " fill="#982034" transform="translate(28,205)"/>
<path d="M0 0 C-0.33 1.32 -0.66 2.64 -1 4 C-3.31 4 -5.62 4 -8 4 C-8.33 2.68 -8.66 1.36 -9 0 C-5.52176885 -1.15941038 -3.54104422 -0.70820884 0 0 Z " fill="#F3DCE0" transform="translate(201,66)"/>
<path d="M0 0 C-7.28571429 4.42857143 -7.28571429 4.42857143 -12 5 C-12 5.66 -12 6.32 -12 7 C-13.65 7.33 -15.3 7.66 -17 8 C-12.64453844 3.10010575 -6.89824704 -2.36599119 0 0 Z " fill="#FA9AAA" transform="translate(103,32)"/>
<path d="M0 0 C0.66 0.33 1.32 0.66 2 1 C1.67 3.31 1.34 5.62 1 8 C-1.1875 8.3125 -1.1875 8.3125 -4 8 C-6.8125 5.5 -6.8125 5.5 -9 3 C-5.80097361 2.91113816 -3.07322544 3.08941469 0 4 C0 2.68 0 1.36 0 0 Z " fill="#FA97A8" transform="translate(153,39)"/>
<path d="M0 0 C5.75 3.625 5.75 3.625 8 7 C7.01 7.99 6.02 8.98 5 10 C4.6596875 9.1646875 4.6596875 9.1646875 4.3125 8.3125 C2.64103234 5.36753316 0.44723648 3.31843456 -2 1 C-1.34 0.67 -0.68 0.34 0 0 Z " fill="#DF6C83" transform="translate(151,34)"/>
<path d="M0 0 C0.33 0 0.66 0 1 0 C1.06058594 0.62648438 1.12117188 1.25296875 1.18359375 1.8984375 C1.26738281 2.71570313 1.35117188 3.53296875 1.4375 4.375 C1.55931641 5.59316406 1.55931641 5.59316406 1.68359375 6.8359375 C1.89090114 9.04272805 1.89090114 9.04272805 3 11 C1.35 11 -0.3 11 -2 11 C-2 10.01 -2 9.02 -2 8 C-2.66 8 -3.32 8 -4 8 C-4 8.66 -4 9.32 -4 10 C-4.66 9.67 -5.32 9.34 -6 9 C-5.02501855 7.4972763 -4.04490611 5.99788037 -3.0625 4.5 C-2.51722656 3.6646875 -1.97195312 2.829375 -1.41015625 1.96875 C-0.94480469 1.3190625 -0.47945313 0.669375 0 0 Z " fill="#E36A81" transform="translate(113,12)"/>
<path d="M0 0 C3.06081203 2.75473082 4.89882863 4.99574049 6 9 C5.625 11.3125 5.625 11.3125 5 13 C5 12.34 5 11.68 5 11 C3.02 10.34 1.04 9.68 -1 9 C-0.649375 8.443125 -0.29875 7.88625 0.0625 7.3125 C1.21845993 4.46113217 0.80967438 2.91482778 0 0 Z " fill="#DD7288" transform="translate(163,46)"/>
<path d="M0 0 C3.85103301 0.53675903 5.31797587 2.11600923 7.75 5.0625 C8.36359375 5.79597656 8.9771875 6.52945312 9.609375 7.28515625 C10.06828125 7.85105469 10.5271875 8.41695312 11 9 C9.68 9.33 8.36 9.66 7 10 C7 8.68 7 7.36 7 6 C6.401875 5.855625 5.80375 5.71125 5.1875 5.5625 C3.43849596 5.1127561 1.71322977 4.57107659 0 4 C0 2.68 0 1.36 0 0 Z " fill="#FB99A8" transform="translate(81,6)"/>
<path d="M0 0 C4.72224516 1.53472968 9.35855331 3.23945126 14 5 C11.42786866 6.61949011 10.32330841 7.04408751 7.25 6.625 C6.5075 6.41875 5.765 6.2125 5 6 C5 5.34 5 4.68 5 4 C2.525 3.01 2.525 3.01 0 2 C0 1.34 0 0.68 0 0 Z " fill="#F9D8E2" transform="translate(102,270)"/>
<path d="M0 0 C0.66 0.33 1.32 0.66 2 1 C0.35 2.65 -1.3 4.3 -3 6 C-3 5.34 -3 4.68 -3 4 C-3.66 4 -4.32 4 -5 4 C-5.268125 4.61875 -5.53625 5.2375 -5.8125 5.875 C-7 8 -7 8 -10 10 C-8.64844718 5.57673622 -6.80109562 3.59587018 -3 1 C-2.01 0.67 -1.02 0.34 0 0 Z " fill="#F999AA" transform="translate(128,54)"/>
<path d="M0 0 C-1.1094072 3.48670834 -2.26337666 6.77484237 -4 10 C-4.66 10 -5.32 10 -6 10 C-6.25 6.6875 -6.25 6.6875 -6 3 C-3.96080228 0.89282902 -2.95416573 0 0 0 Z " fill="#FEECEF" transform="translate(71,48)"/>
<path d="M0 0 C0.13277344 0.56203125 0.26554687 1.1240625 0.40234375 1.703125 C1.02437111 4.09366153 1.77115041 6.41035775 2.5625 8.75 C2.83191406 9.54921875 3.10132812 10.3484375 3.37890625 11.171875 C3.58386719 11.77515625 3.78882812 12.3784375 4 13 C0.83884224 11.63016497 0.0072908 11.0109362 -2 8 C-2.25 4.9375 -2.25 4.9375 -2 2 C-1.34 1.34 -0.68 0.68 0 0 Z " fill="#DE687C" transform="translate(70,5)"/>
<path d="M0 0 C1.98 0.66 3.96 1.32 6 2 C5.0409375 3.051875 5.0409375 3.051875 4.0625 4.125 C1.83613898 7.22841233 1.34919057 9.24620139 1 13 C0.34 12.67 -0.32 12.34 -1 12 C-0.67 8.04 -0.34 4.08 0 0 Z " fill="#AB132D" transform="translate(34,192)"/>
<path d="M0 0 C0.99 0 1.98 0 3 0 C3.33 1.32 3.66 2.64 4 4 C6.31 4.33 8.62 4.66 11 5 C10.67 5.99 10.34 6.98 10 8 C7.75 8.3125 7.75 8.3125 5 8 C2.46161323 5.39110249 1.15259683 3.45779049 0 0 Z " fill="#FB99AB" transform="translate(86,21)"/>
<path d="M0 0 C1.22602512 3.67807537 0.70295577 5.88243927 0.0625 9.6875 C-0.13214844 10.86699219 -0.32679687 12.04648438 -0.52734375 13.26171875 C-0.68332031 14.16535156 -0.83929688 15.06898437 -1 16 C-2.578125 14.8828125 -2.578125 14.8828125 -4 13 C-3.671875 10.1171875 -3.671875 10.1171875 -2.75 6.875 C-2.45609375 5.79992187 -2.1621875 4.72484375 -1.859375 3.6171875 C-1 1 -1 1 0 0 Z " fill="#E27E93" transform="translate(116,0)"/>
<path d="M0 0 C0.66 0.33 1.32 0.66 2 1 C2 4 2 4 0.71484375 5.421875 C-2.86426499 8.09637384 -4.29465339 9.03358793 -8.9375 8.8125 C-9.948125 8.544375 -10.95875 8.27625 -12 8 C-12 7.67 -12 7.34 -12 7 C-10.14375 6.938125 -10.14375 6.938125 -8.25 6.875 C-4.40735288 6.43214173 -4.14481969 6.17740412 -1.5 2.9375 C-1.005 1.968125 -0.51 0.99875 0 0 Z " fill="#F3D8DF" transform="translate(215,90)"/>
<path d="M0 0 C7.37297297 2.34594595 7.37297297 2.34594595 10 4 C10.33 4.99 10.66 5.98 11 7 C7.05123902 6.43589129 4.24365824 5.34264206 1 3 C0.67 2.01 0.34 1.02 0 0 Z " fill="#FC9EB1" transform="translate(158,53)"/>
<path d="M0 0 C0.33 0 0.66 0 1 0 C0.47606294 5.86809507 -0.76108858 10.54873741 -3 16 C-4.13891534 12.58325399 -3.83543755 10.93822735 -3.1875 7.4375 C-3.01605469 6.46683594 -2.84460938 5.49617188 -2.66796875 4.49609375 C-2 2 -2 2 0 0 Z " fill="#FA97A7" transform="translate(174,117)"/>
<path d="M0 0 C0.99 0.33 1.98 0.66 3 1 C3 1.66 3 2.32 3 3 C3.99 3.33 4.98 3.66 6 4 C6 4.99 6 5.98 6 7 C5.01 7 4.02 7 3 7 C2.67 7.66 2.34 8.32 2 9 C1.01 6.36 0.02 3.72 -1 1 C-0.67 0.67 -0.34 0.34 0 0 Z " fill="#F8E9EB" transform="translate(196,119)"/>
<path d="M0 0 C1.1446875 0.3403125 1.1446875 0.3403125 2.3125 0.6875 C-2.3125 5.5625 -2.3125 5.5625 -5.6875 6.6875 C-5.6875 2.6875 -5.6875 2.6875 -4.5 0.875 C-2.6875 -0.3125 -2.6875 -0.3125 0 0 Z " fill="#F79AAC" transform="translate(43.6875,104.3125)"/>
<path d="M0 0 C1.98 0.66 3.96 1.32 6 2 C7.125 7.75 7.125 7.75 6 10 C5.34 10 4.68 10 4 10 C3.566875 8.3603125 3.566875 8.3603125 3.125 6.6875 C2.18106796 2.95986155 2.18106796 2.95986155 0 0 Z " fill="#ECAEB7" transform="translate(82,10)"/>
<path d="M0 0 C0.66 1.32 1.32 2.64 2 4 C0.25 5.5625 0.25 5.5625 -2 7 C-3.32 6.67 -4.64 6.34 -6 6 C-4.02 4.02 -2.04 2.04 0 0 Z " fill="#FAE1E9" transform="translate(211,271)"/>
<path d="M0 0 C1.34173403 0.92543709 2.67320159 1.86577405 4 2.8125 C5.11375 3.59560547 5.11375 3.59560547 6.25 4.39453125 C6.8275 4.92433594 7.405 5.45414063 8 6 C8 6.99 8 7.98 8 9 C6.25 8.875 6.25 8.875 4 8 C0 2.77777778 0 2.77777778 0 0 Z " fill="#F9DCE5" transform="translate(55,239)"/>
<path d="M0 0 C1.32 0.33 2.64 0.66 4 1 C1.69 3.97 -0.62 6.94 -3 10 C-3.33 9.01 -3.66 8.02 -4 7 C-3.67 6.34 -3.34 5.68 -3 5 C-2.34 5 -1.68 5 -1 5 C-0.67 3.35 -0.34 1.7 0 0 Z " fill="#FBDDE2" transform="translate(28,116)"/>
<path d="M0 0 C2.1875 -0.3125 2.1875 -0.3125 5 0 C7.8125 2.5 7.8125 2.5 10 5 C9.34 5.66 8.68 6.32 8 7 C5.18060883 4.79020692 2.46941056 2.59937954 0 0 Z " fill="#FBD7DC" transform="translate(179,104)"/>
<path d="M0 0 C0.33 0 0.66 0 1 0 C1 3.63 1 7.26 1 11 C-0.32 11.33 -1.64 11.66 -3 12 C-2.69230293 10.18667846 -2.37870936 8.37435655 -2.0625 6.5625 C-1.80146484 5.04849609 -1.80146484 5.04849609 -1.53515625 3.50390625 C-1 1 -1 1 0 0 Z " fill="#E66B7F" transform="translate(77,69)"/>
<path d="M0 0 C-1 2 -1 2 -2.99609375 2.88671875 C-3.80175781 3.15097656 -4.60742188 3.41523437 -5.4375 3.6875 C-6.24058594 3.95949219 -7.04367188 4.23148438 -7.87109375 4.51171875 C-10 5 -10 5 -12 4 C-10.56988027 3.13353333 -9.13059381 2.28218171 -7.6875 1.4375 C-6.48673828 0.72400391 -6.48673828 0.72400391 -5.26171875 -0.00390625 C-3 -1 -3 -1 0 0 Z " fill="#DF657B" transform="translate(105,40)"/>
<path d="M0 0 C2.3125 0.1875 2.3125 0.1875 5 1 C6.8125 3.5625 6.8125 3.5625 8 6 C4.62537285 5.45276317 2.91765 4.9451 0 3 C0 2.01 0 1.02 0 0 Z " fill="#EDADB8" transform="translate(146,38)"/>
<path d="M0 0 C1.32 0 2.64 0 4 0 C4 3.63 4 7.26 4 11 C1.6870518 8.6870518 1.50419025 7.52095125 0.875 4.375 C0.70742188 3.55773438 0.53984375 2.74046875 0.3671875 1.8984375 C0.24601562 1.27195312 0.12484375 0.64546875 0 0 Z " fill="#F8E8E8" transform="translate(59,29)"/>
<path d="M0 0 C0.66 0.33 1.32 0.66 2 1 C2 4.96 2 8.92 2 13 C-0.21279137 8.57441726 -0.60155317 5.86105133 -1 1 C-0.67 0.67 -0.34 0.34 0 0 Z " fill="#FBDEE6" transform="translate(210,155)"/>
<path d="M0 0 C0.66 0 1.32 0 2 0 C2.37211538 6.57403846 2.37211538 6.57403846 0.48828125 8.73046875 C-0.00285156 9.14941406 -0.49398438 9.56835938 -1 10 C-1.02689216 8.52093108 -1.04634621 7.04172517 -1.0625 5.5625 C-1.07410156 4.73878906 -1.08570313 3.91507813 -1.09765625 3.06640625 C-1 1 -1 1 0 0 Z " fill="#FFEFF5" transform="translate(13,152)"/>
<path d="M0 0 C1.49660156 0.57427734 1.49660156 0.57427734 3.0234375 1.16015625 C4.02632812 1.54042969 5.02921875 1.92070312 6.0625 2.3125 C6.83335937 2.61285156 7.60421875 2.91320312 8.3984375 3.22265625 C3.83605927 4.66826373 0.90418218 3.62608492 -3.6015625 2.22265625 C-3.9315625 1.56265625 -4.2615625 0.90265625 -4.6015625 0.22265625 C-2.6015625 -0.77734375 -2.6015625 -0.77734375 0 0 Z " fill="#FA9EAF" transform="translate(133.6015625,134.77734375)"/>
<path d="M0 0 C1.32 0.33 2.64 0.66 4 1 C4.33 3.64 4.66 6.28 5 9 C1.7457985 6.16569547 0.4793247 4.31392226 0 0 Z " fill="#BF1533" transform="translate(195,129)"/>
<path d="M0 0 C1.13643966 3.40931897 0.86747764 4.00335456 -0.4375 7.1875 C-0.72496094 7.90292969 -1.01242188 8.61835937 -1.30859375 9.35546875 C-1.53675781 9.89816406 -1.76492187 10.44085938 -2 11 C-2.99 10.34 -3.98 9.68 -5 9 C-3.90931332 5.22454612 -3.0916909 2.52956528 0 0 Z " fill="#E06679" transform="translate(86,51)"/>
<path d="M0 0 C1.32 0 2.64 0 4 0 C4.33 1.32 4.66 2.64 5 4 C4.01 4.33 3.02 4.66 2 5 C1.67 5.99 1.34 6.98 1 8 C0.34 6.68 -0.32 5.36 -1 4 C-0.34 4 0.32 4 1 4 C0.67 2.68 0.34 1.36 0 0 Z " fill="#F3F0F2" transform="translate(166,44)"/>
<path d="M0 0 C-4.83129581 3.01955988 -10.45833168 3 -16 3 C-11.918638 -1.081362 -5.43630843 -0.09372946 0 0 Z " fill="#DD5A71" transform="translate(120,37)"/>
<path d="M0 0 C2.97 0.495 2.97 0.495 6 1 C5.625 2.9375 5.625 2.9375 5 5 C4.01 5.495 4.01 5.495 3 6 C2.01 5.34 1.02 4.68 0 4 C0 2.68 0 1.36 0 0 Z " fill="#F3EBEB" transform="translate(105,13)"/>
<path d="M0 0 C-0.08378906 0.61488281 -0.16757813 1.22976562 -0.25390625 1.86328125 C-0.35574219 2.67152344 -0.45757812 3.47976562 -0.5625 4.3125 C-0.66691406 5.11300781 -0.77132812 5.91351563 -0.87890625 6.73828125 C-1.14755178 9.16817116 -1.14755178 9.16817116 0 12 C-0.99 12 -1.98 12 -3 12 C-3.33 8.37 -3.66 4.74 -4 1 C-2 0 -2 0 0 0 Z " fill="#FDDFE4" transform="translate(70,4)"/>
<path d="M0 0 C0.99 0 1.98 0 3 0 C3 2.64 3 5.28 3 8 C2.01 8 1.02 8 0 8 C0 5.36 0 2.72 0 0 Z " fill="#EFF9F6" transform="translate(214,168)"/>
<path d="M0 0 C1.32 1.32 2.64 2.64 4 4 C2.75453595 7.73639216 1.36595047 8.18756513 -2 10 C-2 6 -2 6 0 4 C0 2.68 0 1.36 0 0 Z " fill="#FBD6DB" transform="translate(82,28)"/>
<path d="M0 0 C0.99 0 1.98 0 3 0 C3 0.66 3 1.32 3 2 C4.98 2 6.96 2 9 2 C6.23776722 4.76223278 3.79293383 4.57856291 0 5 C-0.5625 3.0625 -0.5625 3.0625 -1 1 C-0.67 0.67 -0.34 0.34 0 0 Z " fill="#F6E8ED" transform="translate(183,60)"/>
<path d="M0 0 C0.66 0 1.32 0 2 0 C1.67 2.31 1.34 4.62 1 7 C-0.32 7.33 -1.64 7.66 -3 8 C-1.125 1.125 -1.125 1.125 0 0 Z " fill="#E65C77" transform="translate(74,47)"/>
<path d="M0 0 C0.66 0.33 1.32 0.66 2 1 C2 1.66 2 2.32 2 3 C2.63474075 4.34882408 3.29848848 5.6846659 4 7 C1 7 1 7 -1.1875 5.125 C-3 3 -3 3 -3 1 C-2.01 0.67 -1.02 0.34 0 0 Z " fill="#DF667B" transform="translate(77,17)"/>
<path d="M0 0 C0.66 0 1.32 0 2 0 C2.99 2.97 3.98 5.94 5 9 C3.35 9.66 1.7 10.32 0 11 C0.29296875 9.01432292 0.5859375 7.02864583 0.87890625 5.04296875 C1.13904799 2.7974658 1.13904799 2.7974658 0 0 Z " fill="#FADCE7" transform="translate(154,5)"/>
<path d="M0 0 C0.99 0.66 1.98 1.32 3 2 C2.67 3.32 2.34 4.64 2 6 C1.34 6 0.68 6 0 6 C-0.33 6.66 -0.66 7.32 -1 8 C-1.66 6.68 -2.32 5.36 -3 4 C-2.34 4 -1.68 4 -1 4 C-0.67 2.68 -0.34 1.36 0 0 Z " fill="#FDEDF3" transform="translate(195,112)"/>
<path d="M0 0 C2.91227269 3.28804981 4.49701212 5.59885603 5 10 C4.01 10.495 4.01 10.495 3 11 C0 4.5 0 4.5 0 0 Z " fill="#E26A7E" transform="translate(116,83)"/>
<path d="M0 0 C0.66 0.33 1.32 0.66 2 1 C1.67 2.98 1.34 4.96 1 7 C2.65 7 4.3 7 6 7 C6 7.33 6 7.66 6 8 C4.02 8 2.04 8 0 8 C-1.125 5.6875 -1.125 5.6875 -2 3 C-1.34 2.01 -0.68 1.02 0 0 Z " fill="#FBC6D3" transform="translate(182,84)"/>
<path d="M0 0 C2.475 0.495 2.475 0.495 5 1 C5 2.32 5 3.64 5 5 C3.35 4.67 1.7 4.34 0 4 C0 2.68 0 1.36 0 0 Z " fill="#EE566D" transform="translate(87,30)"/>
<path d="M0 0 C0.99 0 1.98 0 3 0 C2.34 3.3 1.68 6.6 1 10 C0.34 10 -0.32 10 -1 10 C-0.67 6.7 -0.34 3.4 0 0 Z " fill="#B71D2B" transform="translate(209,256)"/>
<path d="M0 0 C0.33 0 0.66 0 1 0 C2.23076923 6.4 2.23076923 6.4 1.0625 9.4375 C0.711875 9.953125 0.36125 10.46875 0 11 C-0.99 11 -1.98 11 -3 11 C-2.690625 10.484375 -2.38125 9.96875 -2.0625 9.4375 C-0.70940713 6.33334577 -0.38640576 3.34884993 0 0 Z " fill="#F6E1E6" transform="translate(16,176)"/>
<path d="M0 0 C0.66 0 1.32 0 2 0 C2.68707555 2.49064888 3 4.37886292 3 7 C1.35 6.67 -0.3 6.34 -2 6 C-1.34 4.02 -0.68 2.04 0 0 Z " fill="#DD6E83" transform="translate(70,50)"/>
<path d="M0 0 C-2 2 -2 2 -4.3828125 2.1953125 C-5.28773437 2.17210937 -6.19265625 2.14890625 -7.125 2.125 C-8.49011719 2.09792969 -8.49011719 2.09792969 -9.8828125 2.0703125 C-10.58148438 2.04710937 -11.28015625 2.02390625 -12 2 C-11.67 1.34 -11.34 0.68 -11 0 C-7.0832314 -1.23098442 -3.97610732 -0.83220851 0 0 Z " fill="#DD748C" transform="translate(83,3)"/>
<path d="M0 0 C0.33 0.99 0.66 1.98 1 3 C0.00390625 4.82421875 0.00390625 4.82421875 -1.4375 6.6875 C-1.91058594 7.31011719 -2.38367188 7.93273437 -2.87109375 8.57421875 C-3.24363281 9.04472656 -3.61617187 9.51523437 -4 10 C-4.99 9.34 -5.98 8.68 -7 8 C-6.01 7.67 -5.02 7.34 -4 7 C-2.78130071 4.49552484 -2.78130071 4.49552484 -2 2 C-1.34 2 -0.68 2 0 2 C0 1.34 0 0.68 0 0 Z " fill="#A22F44" transform="translate(214,263)"/>
<path d="M0 0 C1.65 0.33 3.3 0.66 5 1 C3.625 3 3.625 3 2 5 C1.34 5 0.68 5 0 5 C0 4.34 0 3.68 0 3 C-0.66 2.67 -1.32 2.34 -2 2 C-1.34 2 -0.68 2 0 2 C0 1.34 0 0.68 0 0 Z " fill="#FBE9EE" transform="translate(91,265)"/>
<path d="M0 0 C0 3 0 3 0 3 Z M-1 3 C-1 3.66 -1 4.32 -1 5 C-3.3125 6.6875 -3.3125 6.6875 -6 8 C-6.99 7.67 -7.98 7.34 -9 7 C-3.25 3 -3.25 3 -1 3 Z " fill="#D33B57" transform="translate(145,216)"/>
<path d="M0 0 C0.66 0 1.32 0 2 0 C2.33 1.32 2.66 2.64 3 4 C2.34 4 1.68 4 1 4 C1 5.32 1 6.64 1 8 C0.34 8 -0.32 8 -1 8 C-1.125 2.25 -1.125 2.25 0 0 Z " fill="#AB0123" transform="translate(21,135)"/>
<path d="M0 0 C1.32 0 2.64 0 4 0 C4.66 2.97 5.32 5.94 6 9 C3.07175348 6.07175348 1.72760033 3.7020007 0 0 Z " fill="#FBCED7" transform="translate(160,70)"/>
<path d="M0 0 C2.475 0.99 2.475 0.99 5 2 C4.01 3.485 4.01 3.485 3 5 C0.375 5.1875 0.375 5.1875 -2 5 C-1.34 3.35 -0.68 1.7 0 0 Z " fill="#ED5673" transform="translate(99,25)"/>
<path d="M0 0 C3.82946843 1.45255699 5.12050295 3.42895561 7 7 C6.01 7 5.02 7 4 7 C3.67 6.01 3.34 5.02 3 4 C2.01 3.67 1.02 3.34 0 3 C0 2.01 0 1.02 0 0 Z " fill="#FBDBE2" transform="translate(70,16)"/>
<path d="M0 0 C1.32 0.33 2.64 0.66 4 1 C2.02 3.31 0.04 5.62 -2 8 C-2.33 7.01 -2.66 6.02 -3 5 C-1.5625 2.3125 -1.5625 2.3125 0 0 Z " fill="#FEE9EA" transform="translate(137,6)"/>
<path d="M0 0 C0.33 0.99 0.66 1.98 1 3 C1.66 3 2.32 3 3 3 C3.99 4.98 4.98 6.96 6 9 C5.01 9 4.02 9 3 9 C3 8.01 3 7.02 3 6 C2.01 5.67 1.02 5.34 0 5 C0 3.35 0 1.7 0 0 Z " fill="#B73348" transform="translate(112,118)"/>
<path d="M0 0 C-0.33 1.32 -0.66 2.64 -1 4 C-3.31 4.33 -5.62 4.66 -8 5 C-3.22727273 0 -3.22727273 0 0 0 Z " fill="#BE223C" transform="translate(112,114)"/>
<path d="M0 0 C0.99 0.66 1.98 1.32 3 2 C1.25 4.0625 1.25 4.0625 -1 6 C-3.25 5.75 -3.25 5.75 -5 5 C-3.35 3.35 -1.7 1.7 0 0 Z " fill="#FEDEE3" transform="translate(105,19)"/>
<path d="M0 0 C0.33 0 0.66 0 1 0 C1 2.97 1 5.94 1 9 C0.01 9.33 -0.98 9.66 -2 10 C-2.66 9.67 -3.32 9.34 -4 9 C-4 8.34 -4 7.68 -4 7 C-2.68 7 -1.36 7 0 7 C0 4.69 0 2.38 0 0 Z " fill="#D53F57" transform="translate(195,218)"/>
<path d="M0 0 C4 4.5 4 4.5 4 9 C1.47740939 7.02579865 1.0070192 6.03254358 0.3125 2.8125 C0.209375 1.884375 0.10625 0.95625 0 0 Z " fill="#FDE1E5" transform="translate(25,202)"/>
<path d="M0 0 C2.475 0.99 2.475 0.99 5 2 C4.67 2.99 4.34 3.98 4 5 C2.68 5 1.36 5 0 5 C0 3.35 0 1.7 0 0 Z " fill="#CB1331" transform="translate(184,114)"/>
<path d="M0 0 C-3.00617269 3.00617269 -5.82381598 2.59585316 -10 3 C-6.84439813 -0.15560187 -4.30999015 -1.43666338 0 0 Z " fill="#A12136" transform="translate(60,101)"/>
<path d="M0 0 C0.66 0.99 1.32 1.98 2 3 C1.67 3.66 1.34 4.32 1 5 C-1.0625 5.625 -1.0625 5.625 -3 6 C-2.625 3.5625 -2.625 3.5625 -2 1 C-1.34 0.67 -0.68 0.34 0 0 Z " fill="#E45C74" transform="translate(82,59)"/>
<path d="M0 0 C1.32 0 2.64 0 4 0 C4 1.32 4 2.64 4 4 C2.35 3.67 0.7 3.34 -1 3 C-0.67 2.01 -0.34 1.02 0 0 Z " fill="#ECF3F1" transform="translate(105,276)"/>
<path d="M0 0 C1.32 0.66 2.64 1.32 4 2 C4 2.99 4 3.98 4 5 C3.01 5.33 2.02 5.66 1 6 C0.34 4.35 -0.32 2.7 -1 1 C-0.67 0.67 -0.34 0.34 0 0 Z " fill="#C85368" transform="translate(26,200)"/>
<path d="M0 0 C0.66 0 1.32 0 2 0 C2.33 2.97 2.66 5.94 3 9 C0.90250005 6.64031256 0.03094296 5.45383006 -0.1875 2.25 C-0.125625 1.5075 -0.06375 0.765 0 0 Z " fill="#A13446" transform="translate(18,181)"/>
<path d="M0 0 C2.50298434 2.93828597 3.46930939 5.17902761 4 9 C3.01 8.67 2.02 8.34 1 8 C0.67 5.36 0.34 2.72 0 0 Z " fill="#AE364C" transform="translate(199,130)"/>
<path d="M0 0 C0.66 0.33 1.32 0.66 2 1 C1.34 3.64 0.68 6.28 0 9 C-1.76462683 5.91190305 -2 4.76687864 -2 1 C-1.34 0.67 -0.68 0.34 0 0 Z " fill="#F8DCDE" transform="translate(17,136)"/>
<path d="M0 0 C1.32 0.99 2.64 1.98 4 3 C3.67 4.32 3.34 5.64 3 7 C2.67 6.01 2.34 5.02 2 4 C1.01 3.67 0.02 3.34 -1 3 C-0.67 2.01 -0.34 1.02 0 0 Z " fill="#F99DB0" transform="translate(93,18)"/>
</svg>
