<svg width="75" height="75" viewBox="0 0 75 75" fill="none" xmlns="http://www.w3.org/2000/svg">
<g clip-path="url(#clip0_3039_589)">
<path fill-rule="evenodd" clip-rule="evenodd" d="M14.1747 22.0637L11.0546 17.524C10.747 17.0742 10.8583 16.4597 11.3065 16.148C11.7548 15.8393 12.3671 15.9511 12.6776 16.4009L15.7978 20.9405C16.1054 21.3904 15.9941 22.0049 15.5458 22.3165C15.0976 22.6252 14.4852 22.5135 14.1747 22.0637ZM9.54582 31.8456L4.06729 32.2896C3.52237 32.3337 3.11809 32.81 3.15912 33.3539C3.20306 33.9008 3.67767 34.3065 4.21969 34.2654L9.69822 33.8214C10.2431 33.7773 10.6474 33.301 10.6064 32.757C10.5624 32.2101 10.0878 31.8044 9.54582 31.8456ZM11.7958 25.83L6.82999 23.4631C6.3378 23.2309 5.74894 23.4425 5.51749 23.9365C5.28605 24.4304 5.49698 25.0214 5.98917 25.2537L10.955 27.6205C11.4472 27.8528 12.036 27.6411 12.2675 27.1472C12.4989 26.6532 12.288 26.0622 11.7958 25.83ZM42.1798 71.3382H35.4386L32.9894 54.3997C32.547 51.3449 33.2589 48.5576 35.1075 46.0938C37.8058 42.498 35.3566 37.1383 28.6242 41.9981C22.9758 37.041 17.4882 42.0834 22.6008 46.6671C24.6281 48.4842 25.8058 50.6834 26.1955 53.3826L28.7941 71.3379H21.2446L14.5092 35.6643C13.686 31.304 15.3735 27.1198 18.9888 24.5621L50.9958 1.90771L55.2672 9.3317L37.37 22.2245C36.1219 23.1242 34.8123 23.7328 33.4208 24.0504C32.1581 24.3415 28.9149 24.2356 26.9022 25.0824C26.1171 25.4117 25.2733 25.9879 25.3729 26.9494C25.4286 27.4787 25.8094 27.8844 26.3748 28.0785C26.7616 28.2108 27.2274 28.2872 27.6961 28.4048C29.3982 28.8341 30.5907 30.116 30.8836 31.8772C32.0672 40.1154 37.6131 38.1663 38.3221 33.7207C38.8084 30.6717 40.3143 28.2254 42.8133 26.4261L58.5723 15.074L63.6378 23.8797L40.8243 38.8627C39.4034 39.7977 38.8233 41.5354 39.3975 43.1407C43.4757 54.5515 38.8116 58.8034 42.1836 71.3372L42.1798 71.3382ZM25.0146 30.3401C21.2206 28.0703 19.3602 31.325 19.8495 34.6827C20.3534 38.1315 23.0487 37.5611 25.3222 37.1231C30.2177 36.2175 27.9355 32.0865 25.0146 30.3401ZM71.8431 47.6225C71.8431 54.4173 66.3206 59.9568 59.5528 59.9568C52.7823 59.9568 47.2626 54.4146 47.2626 47.6225C47.2626 40.8278 52.785 35.2882 59.5528 35.2882C66.3233 35.2882 71.8431 40.8305 71.8431 47.6225ZM66.678 45.6673C66.678 45.2968 66.3763 44.991 66.0042 44.991H62.1722V41.1452C62.1722 40.7748 61.8704 40.469 61.4983 40.469H57.5989C57.2298 40.469 56.9251 40.7718 56.9251 41.1452V44.991H53.093C52.7239 44.991 52.4192 45.2939 52.4192 45.6673V49.5807C52.4192 49.9511 52.721 50.2569 53.093 50.2569H56.9251V54.1027C56.9251 54.4731 57.2269 54.7789 57.5989 54.7789H61.4983C61.8675 54.7789 62.1722 54.4761 62.1722 54.1027V50.2569H66.0042C66.3734 50.2569 66.678 49.9541 66.678 49.5807V45.6673Z" fill="#21529A" style="fill:#21529A;fill:color(display-p3 0.1294 0.3216 0.6039);fill-opacity:1;"/>
</g>
<defs>
<clipPath id="clip0_3039_589">
<rect width="69" height="70" fill="white" style="fill:white;fill-opacity:1;" transform="translate(3 2)"/>
</clipPath>
</defs>
</svg>
