<svg width="69" height="69" viewBox="0 0 69 69" fill="none" xmlns="http://www.w3.org/2000/svg">
<rect width="69" height="69" rx="34.5" fill="#CBD5E1" style="fill:#CBD5E1;fill:color(display-p3 0.7961 0.8353 0.8824);fill-opacity:1;"/>
<path d="M17.0015 42.8999C17.0483 45.0262 17.7973 46.8288 19.0054 47.7224C19.4955 48.0946 20.093 48.298 20.7084 48.3021C20.9674 48.3017 21.225 48.2656 21.4742 48.1948C21.5445 48.1739 21.6113 48.1427 21.6725 48.1022C22.1875 49.4164 22.9582 50.6154 23.9399 51.6296C24.3314 52.0021 24.7647 52.4932 25.2236 53.0129C27.084 55.1208 29.6256 58.0005 33.6361 58.0001C33.6749 58.0001 33.7141 57.9997 33.7533 57.9993H34.7377C34.7769 57.9997 34.8161 58.0001 34.8553 58.0001C38.8753 58.0001 41.4172 55.1208 43.2777 53.0129C43.7366 52.4932 44.1698 52.0021 44.5613 51.6296C45.543 50.6154 46.3137 49.4164 46.8288 48.1022C46.8899 48.1427 46.9568 48.1739 47.0271 48.1948C47.2762 48.2656 47.5339 48.3017 47.7929 48.3021C48.4082 48.298 49.0057 48.0946 49.4958 47.7224C50.704 46.8288 51.4529 45.0262 51.5001 42.8999C51.5261 41.7115 51.1976 40.7854 50.5238 40.147C50.0637 39.7216 49.4854 39.4455 48.8652 39.3554C49.3836 33.1059 48.128 28.3503 45.1201 25.2168C44.1291 24.1897 42.9634 23.347 41.6775 22.7278L40.3172 23.7566C41.6703 24.3021 42.899 25.1159 43.9291 26.1489C43.8565 26.7411 43.6677 27.3132 43.3734 27.8322C43.0792 28.3512 42.6854 28.807 42.2145 29.1735C41.4221 29.7992 40.8926 30.6988 40.7302 31.6953C40.7134 31.7788 40.7071 31.8635 40.6941 31.9475C40.5858 32.0692 40.5205 32.223 40.5079 32.3854C40.4954 32.5478 40.5363 32.7099 40.6246 32.8468C40.643 34.1997 41.1064 35.509 41.9432 36.5723C43.476 38.5356 45.1664 40.3706 46.9977 42.059C46.5576 44.4841 45.5427 48.6227 43.5263 50.5434C43.0883 50.9609 42.6342 51.4754 42.1534 52.02C40.3731 54.0368 38.152 56.5458 34.7479 56.4993H33.743C30.3372 56.5487 28.1284 54.0368 26.3479 52.02C25.867 51.4754 25.4129 50.9609 24.9749 50.5434C22.9504 48.6151 21.9346 44.441 21.4974 42.0194C23.3123 40.3419 24.9884 38.5203 26.5094 36.5723C27.1908 35.7027 27.6296 34.6681 27.7812 33.5738C27.9546 33.6364 28.1451 33.6326 28.316 33.5632C28.4868 33.4938 28.6259 33.3637 28.7066 33.1978C28.7873 33.032 28.8037 32.8422 28.7528 32.6649C28.7019 32.4877 28.5873 32.3355 28.431 32.2377C28.1859 32.0818 27.9508 31.9109 27.7267 31.7261C27.7247 31.7159 27.7244 31.7055 27.7223 31.6953C27.5599 30.6988 27.0304 29.7992 26.238 29.1735C25.2982 28.4432 24.6842 27.3717 24.5292 26.1916C26.8849 23.7813 29.9332 23.0354 32.0101 22.8256C32.0377 22.2585 32.2458 21.7151 32.6041 21.2747C30.3011 21.4065 26.3437 22.1228 23.3705 25.2278C23.3224 25.278 23.279 25.3324 23.2318 25.3834C23.2111 25.4041 23.1916 25.426 23.1735 25.449C20.3184 28.5837 19.1294 33.2569 19.636 39.3556C19.016 39.4459 18.4377 39.7218 17.9775 40.147C17.3036 40.7854 16.9751 41.7115 17.0015 42.8999ZM50.0001 42.867C49.9638 44.5077 49.4288 45.9059 48.604 46.5164C48.442 46.6461 48.2512 46.7351 48.0477 46.7759C47.8442 46.8168 47.6339 46.8083 47.4343 46.7512C47.4074 46.7448 47.3801 46.7399 47.3526 46.7367C47.9885 44.8224 48.4432 42.8527 48.7106 40.8535C49.0016 40.9059 49.2722 41.0383 49.4921 41.2358C49.8455 41.5709 50.0166 42.1199 50.0001 42.867ZM43.1283 35.6531C42.7197 35.1455 42.4253 34.5557 42.2651 33.9241C42.105 33.2924 42.0828 32.6337 42.2002 31.9927C42.2951 31.3564 42.6228 30.778 43.1198 30.3696C44.0473 29.6629 44.7425 28.6952 45.1164 27.5907C47.1459 30.551 47.8765 34.7732 47.2816 40.1833C47.2812 40.1872 47.278 40.2157 47.2731 40.2583C45.7855 38.822 44.4005 37.2832 43.1283 35.6531ZM23.3537 27.6379C23.7303 28.7233 24.4187 29.6735 25.3327 30.3696C25.8297 30.778 26.1574 31.3564 26.2523 31.9927C26.3697 32.6337 26.3476 33.2924 26.1874 33.9241C26.0273 34.5557 25.7329 35.1455 25.3243 35.6531C24.0645 37.2669 22.6942 38.7913 21.2233 40.2153L21.2193 40.1793C20.6278 34.8008 21.3484 30.5956 23.3537 27.6379ZM19.0007 41.2439C19.2217 41.0415 19.4957 40.9063 19.7908 40.8539C19.82 41.0721 19.8604 41.3514 19.9134 41.6797C19.8927 41.83 19.9183 41.9831 19.9869 42.1184C20.2547 43.6854 20.6431 45.2294 21.1487 46.7366C21.1212 46.7399 21.0939 46.7448 21.0669 46.7511C20.8674 46.8083 20.657 46.8168 20.4535 46.776C20.25 46.7351 20.0592 46.6461 19.8972 46.5164C19.0725 45.9059 18.5374 44.5076 18.5011 42.867C18.4677 42.5766 18.4949 42.2824 18.5809 42.0031C18.6668 41.7237 18.8098 41.4652 19.0007 41.2439Z" fill="#21529A" style="fill:#21529A;fill:color(display-p3 0.1294 0.3216 0.6039);fill-opacity:1;"/>
<path d="M37.8525 33.962C37.8808 34.0564 37.9275 34.1443 37.9898 34.2206C38.0522 34.2969 38.129 34.3602 38.2159 34.4067C38.3028 34.4532 38.398 34.4821 38.4961 34.4917C38.5942 34.5013 38.6932 34.4914 38.7875 34.4627C39.1848 34.3426 39.5646 34.2085 39.9162 34.0639C40.0072 34.0264 40.0901 33.9714 40.1599 33.902C40.2297 33.8326 40.2852 33.7501 40.3232 33.6592C40.3611 33.5684 40.3808 33.4709 40.3811 33.3724C40.3814 33.274 40.3623 33.1764 40.3249 33.0853C40.2874 32.9942 40.2325 32.9114 40.163 32.8416C40.0936 32.7717 40.0111 32.7162 39.9202 32.6783C39.8294 32.6403 39.7319 32.6207 39.6334 32.6204C39.535 32.6201 39.4374 32.6392 39.3463 32.6766C39.039 32.8026 38.7047 32.9205 38.3531 33.0271C38.2588 33.0556 38.1711 33.1024 38.0949 33.1648C38.0187 33.2272 37.9556 33.304 37.9091 33.3908C37.8626 33.4777 37.8337 33.5728 37.824 33.6708C37.8143 33.7688 37.8239 33.8678 37.8525 33.962Z" fill="#21529A" style="fill:#21529A;fill:color(display-p3 0.1294 0.3216 0.6039);fill-opacity:1;"/>
<path d="M31.8862 34.266C31.8673 34.4641 31.9279 34.6615 32.0545 34.8149C32.1811 34.9683 32.3635 35.0652 32.5615 35.0842C32.9449 35.1208 33.3423 35.1432 33.7422 35.1508H33.7565C33.9542 35.1508 34.1439 35.0726 34.2843 34.9334C34.4247 34.7942 34.5045 34.6052 34.5063 34.4075C34.5081 34.2098 34.4317 34.0194 34.2938 33.8777C34.156 33.736 33.9677 33.6544 33.77 33.6508C33.4082 33.6442 33.05 33.6241 32.7043 33.5907C32.5065 33.5728 32.3096 33.6337 32.1564 33.7601C32.0032 33.8866 31.9061 34.0684 31.8862 34.266Z" fill="#21529A" style="fill:#21529A;fill:color(display-p3 0.1294 0.3216 0.6039);fill-opacity:1;"/>
<path d="M29.4542 34.3971C29.8312 34.5352 30.2153 34.6532 30.6049 34.7505C30.7976 34.7986 31.0016 34.7682 31.172 34.666C31.3423 34.5639 31.4652 34.3983 31.5136 34.2056C31.562 34.0129 31.532 33.8089 31.4302 33.6384C31.3283 33.4678 31.163 33.3446 30.9704 33.2959C30.6322 33.2112 30.2988 33.1089 29.9713 32.9893C29.8789 32.9554 29.7807 32.94 29.6823 32.944C29.5839 32.948 29.4872 32.9713 29.3979 33.0127C29.3085 33.054 29.2281 33.1126 29.1614 33.185C29.0947 33.2574 29.0428 33.3422 29.0089 33.4347C28.9749 33.5271 28.9595 33.6253 28.9635 33.7237C28.9675 33.8221 28.9909 33.9187 29.0322 34.0081C29.0736 34.0975 29.1321 34.1778 29.2045 34.2446C29.2769 34.3113 29.3618 34.3632 29.4542 34.3971Z" fill="#21529A" style="fill:#21529A;fill:color(display-p3 0.1294 0.3216 0.6039);fill-opacity:1;"/>
<path d="M36.6175 33.4315C36.267 33.4916 35.9092 33.5399 35.5543 33.5755C35.3563 33.5953 35.1744 33.6929 35.0484 33.8469C34.9225 34.0009 34.8628 34.1986 34.8826 34.3965C34.9025 34.5945 35.0001 34.7764 35.1541 34.9024C35.3081 35.0284 35.5058 35.088 35.7037 35.0682C36.0934 35.029 36.4856 34.9759 36.8701 34.9103C36.9673 34.8939 37.0603 34.8584 37.1438 34.8059C37.2273 34.7535 37.2996 34.6851 37.3566 34.6047C37.4136 34.5242 37.4543 34.4334 37.4761 34.3372C37.498 34.2411 37.5007 34.1416 37.4841 34.0444C37.4675 33.9473 37.4319 33.8543 37.3794 33.7709C37.3268 33.6875 37.2583 33.6152 37.1778 33.5583C37.0973 33.5014 37.0064 33.4609 36.9103 33.4391C36.8141 33.4174 36.7146 33.4148 36.6175 33.4315Z" fill="#21529A" style="fill:#21529A;fill:color(display-p3 0.1294 0.3216 0.6039);fill-opacity:1;"/>
<path d="M27.4157 26.8738C27.8352 26.8738 28.1752 26.538 28.1752 26.1238C28.1752 25.7096 27.8352 25.3738 27.4157 25.3738C26.9963 25.3738 26.6562 25.7096 26.6562 26.1238C26.6562 26.538 26.9963 26.8738 27.4157 26.8738Z" fill="#21529A" style="fill:#21529A;fill:color(display-p3 0.1294 0.3216 0.6039);fill-opacity:1;"/>
<path d="M40.8103 26.8738C41.2297 26.8738 41.5697 26.538 41.5697 26.1238C41.5697 25.7096 41.2297 25.3738 40.8103 25.3738C40.3908 25.3738 40.0508 25.7096 40.0508 26.1238C40.0508 26.538 40.3908 26.8738 40.8103 26.8738Z" fill="#21529A" style="fill:#21529A;fill:color(display-p3 0.1294 0.3216 0.6039);fill-opacity:1;"/>
<path d="M31.4509 25.3738C31.8703 25.3738 32.2103 25.038 32.2103 24.6238C32.2103 24.2096 31.8703 23.8738 31.4509 23.8738C31.0314 23.8738 30.6914 24.2096 30.6914 24.6238C30.6914 25.038 31.0314 25.3738 31.4509 25.3738Z" fill="#21529A" style="fill:#21529A;fill:color(display-p3 0.1294 0.3216 0.6039);fill-opacity:1;"/>
<path d="M30.6911 28.0396C31.1106 28.0396 31.4506 27.7038 31.4506 27.2896C31.4506 26.8753 31.1106 26.5396 30.6911 26.5396C30.2717 26.5396 29.9316 26.8753 29.9316 27.2896C29.9316 27.7038 30.2717 28.0396 30.6911 28.0396Z" fill="#21529A" style="fill:#21529A;fill:color(display-p3 0.1294 0.3216 0.6039);fill-opacity:1;"/>
<path d="M29.5505 31.4148C29.9699 31.4148 30.31 31.079 30.31 30.6648C30.31 30.2506 29.9699 29.9148 29.5505 29.9148C29.131 29.9148 28.791 30.2506 28.791 30.6648C28.791 31.079 29.131 31.4148 29.5505 31.4148Z" fill="#21529A" style="fill:#21529A;fill:color(display-p3 0.1294 0.3216 0.6039);fill-opacity:1;"/>
<path d="M39.3973 30.6647C39.3966 30.4959 39.3379 30.3324 39.2311 30.2017C38.865 30.4857 38.4197 30.6491 37.9567 30.6694L37.9443 30.6696C37.9336 30.7261 37.9154 30.7811 37.9004 30.8368C37.9446 31.0162 38.0526 31.1734 38.2044 31.2789C38.3561 31.3843 38.541 31.4309 38.7246 31.4098C38.9082 31.3887 39.0778 31.3014 39.2016 31.1642C39.3254 31.0271 39.395 30.8495 39.3973 30.6647Z" fill="#21529A" style="fill:#21529A;fill:color(display-p3 0.1294 0.3216 0.6039);fill-opacity:1;"/>
<path d="M32.5902 29.1648C32.4655 29.1654 32.3428 29.1971 32.2334 29.257C32.124 29.317 32.0312 29.4033 31.9636 29.5081C31.8959 29.613 31.8555 29.733 31.8459 29.8574C31.8364 29.9818 31.858 30.1066 31.9089 30.2206C31.9598 30.3345 32.0382 30.4339 32.1372 30.5099C32.2362 30.5858 32.3526 30.6359 32.4758 30.6555C32.599 30.6751 32.7252 30.6637 32.8429 30.6223C32.9606 30.5808 33.0661 30.5107 33.1498 30.4182C32.9633 30.0235 32.8254 29.6076 32.7392 29.1796C32.6901 29.1699 32.6402 29.1649 32.5902 29.1648Z" fill="#21529A" style="fill:#21529A;fill:color(display-p3 0.1294 0.3216 0.6039);fill-opacity:1;"/>
<path d="M52.1033 11.1373C51.9714 10.8308 51.7598 10.5654 51.4904 10.3686C51.221 10.1718 50.9037 10.0509 50.5717 10.0184C50.2979 9.98176 50.0195 9.99992 49.7527 10.0718C49.4859 10.1438 49.2361 10.268 49.0178 10.4374L33.9712 22.0112C33.7661 22.1668 33.617 22.3847 33.5461 22.6322C33.4752 22.8797 33.4863 23.1435 33.5779 23.3841L34.7043 26.3563C34.3672 26.8069 34.1691 27.3461 34.1341 27.9077C34.1021 28.4371 34.1819 28.9673 34.3684 29.4637C34.5548 29.9602 34.8438 30.4118 35.2163 30.7892C35.2873 30.8575 35.371 30.9112 35.4627 30.9472C35.5544 30.9832 35.6522 31.0008 35.7507 30.999C35.8492 30.9971 35.9464 30.9759 36.0367 30.9365C36.1269 30.8971 36.2086 30.8404 36.2769 30.7694C36.3453 30.6985 36.399 30.6148 36.435 30.5231C36.4709 30.4314 36.4885 30.3335 36.4867 30.235C36.4849 30.1365 36.4636 30.0394 36.4243 29.9491C36.3849 29.8588 36.3281 29.7772 36.2571 29.7088C36.0428 29.4838 35.8767 29.2174 35.7689 28.9259C35.6612 28.6344 35.6141 28.3239 35.6305 28.0136C35.6308 28.01 35.6319 28.007 35.6322 28.0035C36.1649 28.6088 37.006 29.1727 37.8158 29.1727C37.8411 29.1727 37.8663 29.1719 37.8912 29.1709C38.0869 29.1621 38.2715 29.0771 38.4053 28.9341C38.5392 28.7911 38.6118 28.6013 38.6076 28.4055C38.6034 28.2096 38.5227 28.0232 38.3828 27.886C38.2429 27.7489 38.0549 27.6719 37.859 27.6715C37.8411 27.6715 37.8231 27.6723 37.8074 27.6726C37.4255 27.6726 36.8217 27.1511 36.5789 26.7797L37.3327 24.1331L51.3522 13.5298C51.7341 13.2789 52.0176 12.9036 52.1545 12.4675C52.2914 12.0315 52.2733 11.5615 52.1033 11.1373ZM50.5018 12.2938C50.489 12.3026 50.4761 12.3114 50.4641 12.3209L36.3908 22.9659C36.1274 23.1457 35.946 23.4225 35.8861 23.7357L35.6411 24.596L35.061 23.0652L49.9323 11.6262C49.992 11.5786 50.0605 11.5432 50.1339 11.5222C50.2074 11.5011 50.2842 11.4948 50.3601 11.5035C50.6468 11.5441 50.697 11.6632 50.7212 11.7206C50.7565 11.8268 50.754 11.9419 50.714 12.0464C50.674 12.1509 50.599 12.2384 50.5018 12.2938Z" fill="#21529A" style="fill:#21529A;fill:color(display-p3 0.1294 0.3216 0.6039);fill-opacity:1;"/>
</svg>
